<?xml version="1.0" encoding="UTF-8" standalone="no"?>
<!-- Created with Inkscape (http://www.inkscape.org/) -->

<svg
   width="44mm"
   height="44mm"
   viewBox="0 0 44 44"
   version="1.1"
   id="svg8"
   inkscape:version="1.2.2 (732a01da63, 2022-12-09)"
   sodipodi:docname="CUT.svg"
   xmlns:inkscape="http://www.inkscape.org/namespaces/inkscape"
   xmlns:sodipodi="http://sodipodi.sourceforge.net/DTD/sodipodi-0.dtd"
   xmlns="http://www.w3.org/2000/svg"
   xmlns:svg="http://www.w3.org/2000/svg"
   xmlns:rdf="http://www.w3.org/1999/02/22-rdf-syntax-ns#"
   xmlns:cc="http://creativecommons.org/ns#"
   xmlns:dc="http://purl.org/dc/elements/1.1/">
  <defs
     id="defs2">
    <rect
       x="37.415228"
       y="127.25"
       width="106.48846"
       height="41"
       id="rect1561" />
    <circle
       style="opacity:0.98999999;fill:none;fill-opacity:1;stroke:none;stroke-width:0.01964606;stroke-linecap:round;stroke-linejoin:round;stroke-miterlimit:4;stroke-dasharray:none;stroke-dashoffset:0;stroke-opacity:1"
       id="path815-1-1"
       cx="275"
       cy="-22.000006"
       r="15"
       transform="rotate(90.000002)" />
  </defs>
  <sodipodi:namedview
     id="base"
     pagecolor="#ffffff"
     bordercolor="#666666"
     borderopacity="1.0"
     inkscape:pageopacity="0.0"
     inkscape:pageshadow="2"
     inkscape:zoom="4"
     inkscape:cx="25.125"
     inkscape:cy="83.75"
     inkscape:document-units="mm"
     inkscape:current-layer="layer1"
     showgrid="false"
     showguides="true"
     inkscape:guide-bbox="true"
     inkscape:snap-bbox="true"
     inkscape:bbox-paths="true"
     inkscape:bbox-nodes="true"
     inkscape:snap-bbox-edge-midpoints="true"
     inkscape:snap-bbox-midpoints="true"
     inkscape:object-paths="true"
     inkscape:snap-intersection-paths="true"
     inkscape:object-nodes="true"
     inkscape:snap-smooth-nodes="true"
     inkscape:snap-midpoints="true"
     inkscape:window-width="1920"
     inkscape:window-height="1137"
     inkscape:window-x="1905"
     inkscape:window-y="1076"
     inkscape:window-maximized="1"
     inkscape:snap-global="true"
     inkscape:showpageshadow="2"
     inkscape:pagecheckerboard="0"
     inkscape:deskcolor="#d1d1d1">
    <sodipodi:guide
       position="2,277.05656"
       orientation="1,0"
       id="guide817"
       inkscape:locked="false"
       inkscape:label=""
       inkscape:color="rgb(0,0,255)" />
    <sodipodi:guide
       position="42.000001,39.498513"
       orientation="1,0"
       id="guide819"
       inkscape:locked="false"
       inkscape:label=""
       inkscape:color="rgb(0,0,255)" />
    <sodipodi:guide
       position="-13.229,2"
       orientation="0,1"
       id="guide821"
       inkscape:locked="false"
       inkscape:label=""
       inkscape:color="rgb(0,0,255)" />
    <sodipodi:guide
       position="-15.213542,42.267188"
       orientation="0,1"
       id="guide823"
       inkscape:locked="false"
       inkscape:label=""
       inkscape:color="rgb(0,0,255)" />
    <sodipodi:guide
       position="22,43.845239"
       orientation="1,0"
       id="guide825"
       inkscape:locked="false"
       inkscape:label=""
       inkscape:color="rgb(0,0,255)" />
    <sodipodi:guide
       position="5.75,21.579509"
       orientation="0,1"
       id="guide827"
       inkscape:locked="false"
       inkscape:label=""
       inkscape:color="rgb(0,0,255)" />
    <sodipodi:guide
       position="33.000001,8.2319016"
       orientation="1,0"
       id="guide1406"
       inkscape:locked="false"
       inkscape:label=""
       inkscape:color="rgb(0,0,255)" />
    <sodipodi:guide
       position="14,40.50388"
       orientation="1,0"
       id="guide1408"
       inkscape:locked="false"
       inkscape:label=""
       inkscape:color="rgb(0,0,255)" />
    <sodipodi:guide
       position="11,8.9710288"
       orientation="1,0"
       id="guide1504"
       inkscape:locked="false" />
    <sodipodi:guide
       position="34.500001,8.003646"
       orientation="1,0"
       id="guide1506"
       inkscape:locked="false" />
    <sodipodi:guide
       position="8.2519468,3.8754082"
       orientation="0,1"
       id="guide1508"
       inkscape:locked="false" />
    <sodipodi:guide
       position="35.097111,12.380842"
       orientation="0,1"
       id="guide977"
       inkscape:locked="false" />
  </sodipodi:namedview>
  <metadata
     id="metadata5">
    <rdf:RDF>
      <cc:Work
         rdf:about="">
        <dc:format>image/svg+xml</dc:format>
        <dc:type
           rdf:resource="http://purl.org/dc/dcmitype/StillImage" />
      </cc:Work>
    </rdf:RDF>
  </metadata>
  <g
     inkscape:label="Layer 1"
     inkscape:groupmode="layer"
     id="layer1"
     transform="translate(0,-253)">
    <circle
       style="opacity:0.98999999;fill:none;fill-opacity:1;stroke:#ff0000;stroke-width:0.02619474;stroke-linecap:round;stroke-linejoin:round;stroke-miterlimit:4;stroke-dasharray:none;stroke-dashoffset:0;stroke-opacity:1"
       id="path815"
       cx="22"
       cy="275"
       r="20" />
    <g
       id="g873"
       transform="matrix(0.05376066,0,0,0.05376066,15.54872,263.3781)">
      <g
         id="right">
        <path
           id="path848"
           d="m 118,65 h 27.65 c 16.26,0 32.34,-10.5 32.34,-23.98 0,-7.16 -3.21,-12.19 -7.2,-17.75 -2.34,0.38 -4.47,0.6 -6.14,0.6 -7.37,0 -11.36,-3.94 -11.64,-7.81 0,-3.49 2.82,-6.13 7.23,-6.13 6.85,0 19.27,6.39 31.83,6.39 -1.25,0.94 -3.3,1.92 -5.78,2.87 7.36,6.59 12.28,15.47 14.14,24.99 l 19.23,30.75 c 3.22,5.17 10.06,15.27 20.34,23.16 -12.43,0 -20.68,0.3 -31.19,-16.36 l -9.85,-15.78 c -0.73,2.05 -1.64,4.05 -2.69,6 l 19.59,31.36 c 3.27,5.22 10.01,15.23 20.35,23.16 -12.44,0 -20.69,0.3 -31.19,-16.35 L 188.14,83.1 c -1.25,1.35 -2.59,2.65 -3.99,3.92 l 23.8,38.12 c 2.96,4.69 8.7,13.28 17.39,20.73 l 2.96,2.42 c -6.65,0 -12.11,0.06 -17.35,-2.41 -4.56,-2.14 -8.96,-6.21 -13.84,-13.95 L 173.9,94.77 c -1.53,0.96 -3.09,1.89 -4.7,2.78 l 28.32,45.34 1.88,2.99 c 3.69,5.45 9.79,13.51 18.45,20.15 -12.43,0 -20.67,0.29 -31.2,-16.35 l -2.36,-3.8 -26.79,-42.9 c -1.73,0.66 -3.48,1.28 -5.26,1.86 l 25.62,41.04 7.33,11.74 c 3.22,5.13 10.1,15.27 20.34,23.14 -12.43,0 -20.67,0.28 -31.19,-16.36 l -11.57,-18.52 -23.55,-37.74 c -2.03,3.24 -2.69,6.07 -2.69,8.9 0,10.43 4.02,20.16 10.2,28.84 4.28,6.02 9.6,11.55 15.3,16.5 -0.88,0.39 -2.43,0.54 -3.87,0.54 -2.87,0 -4.73,-0.17 -6.03,-0.39 3.22,7.32 10.15,16.79 13.64,21.69 4.56,-0.82 11.19,-1.46 15.53,-1.46 4.53,0 5.04,2.66 5.04,5.03 0,4.13 -1.92,7.43 -4.17,9.26 -0.83,-2.15 -2.54,-4.94 -10.92,-4.94 1.61,2.76 9.29,8.98 9.29,13.99 0,3.3 -3.62,8.26 -8.42,8.26 0.28,-1.07 0.24,-2.06 0.24,-2.79 0,-4.03 -3.57,-8.77 -6.6,-12.08 0.09,0.98 0.04,0.88 0.04,2.02 0,9.58 -0.87,13.98 -6.94,13.98 -2.98,0 -5.03,-1.64 -5.74,-2.12 3.94,-3.65 4.14,-6.49 4.14,-11.87 l -0.03,-4.65 c -0.01,-1.22 0.02,-2.84 0.2,-4.02 -2.17,-0.3 -3.04,-0.3 -4.72,-0.3 0,0 -8.63,-0.68 -10.71,3.81 -2.34,-2.15 -5.74,-5.18 -5.74,-8.54 0,-2.2 1.05,-4.71 5.49,-4.71 1.68,0 6.98,1.03 11.42,1.03 -1.2,-2.66 -6.5,-10.41 -11.09,-16.04 -0.7,2.19 -1.78,4.56 -4.18,6.48 -0.33,-3.61 -2.46,-15.05 -8.11,-21.74 -0.66,4.51 -1.55,9.15 -1.55,18.93 0,23.79 5.72,41.36 17.86,44.73 -1.58,2.76 -4.93,5.21 -8.39,5.21 -4.44,0 -6.85,-5.03 -9.33,-9.76 -1.28,3.51 -4.83,12.07 -8.38,12.07 -0.7,0 -1.48,-0.38 -2,-0.85 z"
           inkscape:connector-curvature="0" />
        <path
           id="path850"
           d="m 188.49,45.61 c 0,-11.72 -8.52,-21 -11.52,-23.61 l -2.16,0.5 c 3.18,3.9 8.82,10.42 8.82,19.05 0,17 -17.96,31.75 -38.44,32.03 0.24,2.9 0.16,8.4 -0.29,11.72 23.25,-0.41 43.59,-19.33 43.59,-39.69 z m -32.06,140.68 c -9.91,0 -12.07,-1.04 -14.68,-1.04 -1.68,0 -3.29,0.17 -3.29,2.55 0,1.66 1.87,4.06 3.54,5.33 2.34,-2.32 5.54,-2.83 10.71,-2.83 2.41,0 5.71,0.47 7.17,0.68 -0.2,1.43 -0.49,3.27 -0.49,5.86 0,1.38 0.05,2.97 0.05,4.66 0,5.87 -0.86,8.97 -2.91,11.31 0.45,0.27 1.64,0.53 2.33,0.53 3.79,0 4.76,-1.96 4.76,-11.83 0,-2.98 0.26,-5.72 0.26,-6.44 5.3,4.04 10.71,11.28 10.71,16.5 1.73,-0.87 3.79,-3.5 3.79,-5.47 0,-3.55 -5.97,-8.86 -12.27,-15.26 0.88,-0.21 3.22,-0.89 5.14,-0.89 4.97,0 8.97,0.82 11.3,3.58 0.93,-1 1.69,-4.01 1.69,-5.74 0,-2.98 -1.71,-2.86 -2.94,-2.86 -5.28,0 -11.81,0.82 -16.48,1.58 -1.7,-2.25 -12.51,-16.9 -15.31,-24.7 -0.81,-0.3 -1.44,-0.54 -2.76,-0.54 -2.61,0 -3.27,1.83 -3.96,4.32 5.97,7.25 11.7,15.11 13.64,20.7 z"
           inkscape:connector-curvature="0"
           style="fill:#ffffff" />
      </g>
      <g
         id="use853"
         transform="matrix(-1,0,0,1,240,0)">
        <path
           id="path989"
           d="m 118,65 h 27.65 c 16.26,0 32.34,-10.5 32.34,-23.98 0,-7.16 -3.21,-12.19 -7.2,-17.75 -2.34,0.38 -4.47,0.6 -6.14,0.6 -7.37,0 -11.36,-3.94 -11.64,-7.81 0,-3.49 2.82,-6.13 7.23,-6.13 6.85,0 19.27,6.39 31.83,6.39 -1.25,0.94 -3.3,1.92 -5.78,2.87 7.36,6.59 12.28,15.47 14.14,24.99 l 19.23,30.75 c 3.22,5.17 10.06,15.27 20.34,23.16 -12.43,0 -20.68,0.3 -31.19,-16.36 l -9.85,-15.78 c -0.73,2.05 -1.64,4.05 -2.69,6 l 19.59,31.36 c 3.27,5.22 10.01,15.23 20.35,23.16 -12.44,0 -20.69,0.3 -31.19,-16.35 L 188.14,83.1 c -1.25,1.35 -2.59,2.65 -3.99,3.92 l 23.8,38.12 c 2.96,4.69 8.7,13.28 17.39,20.73 l 2.96,2.42 c -6.65,0 -12.11,0.06 -17.35,-2.41 -4.56,-2.14 -8.96,-6.21 -13.84,-13.95 L 173.9,94.77 c -1.53,0.96 -3.09,1.89 -4.7,2.78 l 28.32,45.34 1.88,2.99 c 3.69,5.45 9.79,13.51 18.45,20.15 -12.43,0 -20.67,0.29 -31.2,-16.35 l -2.36,-3.8 -26.79,-42.9 c -1.73,0.66 -3.48,1.28 -5.26,1.86 l 25.62,41.04 7.33,11.74 c 3.22,5.13 10.1,15.27 20.34,23.14 -12.43,0 -20.67,0.28 -31.19,-16.36 l -11.57,-18.52 -23.55,-37.74 c -2.03,3.24 -2.69,6.07 -2.69,8.9 0,10.43 4.02,20.16 10.2,28.84 4.28,6.02 9.6,11.55 15.3,16.5 -0.88,0.39 -2.43,0.54 -3.87,0.54 -2.87,0 -4.73,-0.17 -6.03,-0.39 3.22,7.32 10.15,16.79 13.64,21.69 4.56,-0.82 11.19,-1.46 15.53,-1.46 4.53,0 5.04,2.66 5.04,5.03 0,4.13 -1.92,7.43 -4.17,9.26 -0.83,-2.15 -2.54,-4.94 -10.92,-4.94 1.61,2.76 9.29,8.98 9.29,13.99 0,3.3 -3.62,8.26 -8.42,8.26 0.28,-1.07 0.24,-2.06 0.24,-2.79 0,-4.03 -3.57,-8.77 -6.6,-12.08 0.09,0.98 0.04,0.88 0.04,2.02 0,9.58 -0.87,13.98 -6.94,13.98 -2.98,0 -5.03,-1.64 -5.74,-2.12 3.94,-3.65 4.14,-6.49 4.14,-11.87 l -0.03,-4.65 c -0.01,-1.22 0.02,-2.84 0.2,-4.02 -2.17,-0.3 -3.04,-0.3 -4.72,-0.3 0,0 -8.63,-0.68 -10.71,3.81 -2.34,-2.15 -5.74,-5.18 -5.74,-8.54 0,-2.2 1.05,-4.71 5.49,-4.71 1.68,0 6.98,1.03 11.42,1.03 -1.2,-2.66 -6.5,-10.41 -11.09,-16.04 -0.7,2.19 -1.78,4.56 -4.18,6.48 -0.33,-3.61 -2.46,-15.05 -8.11,-21.74 -0.66,4.51 -1.55,9.15 -1.55,18.93 0,23.79 5.72,41.36 17.86,44.73 -1.58,2.76 -4.93,5.21 -8.39,5.21 -4.44,0 -6.85,-5.03 -9.33,-9.76 -1.28,3.51 -4.83,12.07 -8.38,12.07 -0.7,0 -1.48,-0.38 -2,-0.85 z"
           inkscape:connector-curvature="0" />
        <path
           id="path991"
           d="m 188.49,45.61 c 0,-11.72 -8.52,-21 -11.52,-23.61 l -2.16,0.5 c 3.18,3.9 8.82,10.42 8.82,19.05 0,17 -17.96,31.75 -38.44,32.03 0.24,2.9 0.16,8.4 -0.29,11.72 23.25,-0.41 43.59,-19.33 43.59,-39.69 z m -32.06,140.68 c -9.91,0 -12.07,-1.04 -14.68,-1.04 -1.68,0 -3.29,0.17 -3.29,2.55 0,1.66 1.87,4.06 3.54,5.33 2.34,-2.32 5.54,-2.83 10.71,-2.83 2.41,0 5.71,0.47 7.17,0.68 -0.2,1.43 -0.49,3.27 -0.49,5.86 0,1.38 0.05,2.97 0.05,4.66 0,5.87 -0.86,8.97 -2.91,11.31 0.45,0.27 1.64,0.53 2.33,0.53 3.79,0 4.76,-1.96 4.76,-11.83 0,-2.98 0.26,-5.72 0.26,-6.44 5.3,4.04 10.71,11.28 10.71,16.5 1.73,-0.87 3.79,-3.5 3.79,-5.47 0,-3.55 -5.97,-8.86 -12.27,-15.26 0.88,-0.21 3.22,-0.89 5.14,-0.89 4.97,0 8.97,0.82 11.3,3.58 0.93,-1 1.69,-4.01 1.69,-5.74 0,-2.98 -1.71,-2.86 -2.94,-2.86 -5.28,0 -11.81,0.82 -16.48,1.58 -1.7,-2.25 -12.51,-16.9 -15.31,-24.7 -0.81,-0.3 -1.44,-0.54 -2.76,-0.54 -2.61,0 -3.27,1.83 -3.96,4.32 5.97,7.25 11.7,15.11 13.64,20.7 z"
           inkscape:connector-curvature="0"
           style="fill:#ffffff" />
      </g>
      <path
         id="path855"
         d="m 96.67,66 c 3.37,-12.02 10.46,-19.17 15.93,-26.17 -6.56,-2.39 -13.88,-8.62 -13.88,-11.45 0.83,-0.48 13.41,3.47 14.71,3.82 2.37,-0.46 3.64,-2.69 3.64,-2.92 -1.34,-0.23 -9.23,-1.24 -14.62,-3.21 -4.09,-1.5 -6.17,-4.22 -6.17,-5.25 1.32,-0.22 6.3,2.41 13.63,2.41 2.71,0 3.23,-0.11 5.93,-0.44 -1.89,-4.5 -5.45,-8.31 -9.44,-8.31 -1.61,0 -5.12,1 -8.06,2.48 -2.05,-3.19 -3.85,-7.37 -3.85,-9.66 0,-2.7 2.67,-5.86 10.2,-5.86 2.81,0 6.34,0.34 9.92,1.65 C 114.45,1.1 115.4,0 118.92,0 c 6.19,0 12.55,2.05 20.33,2.05 2.01,0 3.38,-0.09 4.54,-0.58 -0.5,1.56 -2.69,3.84 -4.68,5.69 1.23,1.69 4.44,5.77 4.44,12.37 0,10.6 -6.97,19.34 -6.97,30.04 0,6.37 4.89,11.99 6.68,16.43 z"
         inkscape:connector-curvature="0" />
      <path
         id="path857"
         d="m 119.41,25.73 c 1.08,-2.44 2.52,-5.36 2.52,-8.57 0,-8.9 -7.37,-13.14 -17.24,-13.14 -5.07,0 -7.63,1.64 -7.63,3.28 0,1.64 1.67,5.26 2.33,6.38 1.82,-0.8 5.1,-1.77 7.01,-1.77 6.77,0 11.83,7.59 13.01,13.82 z m 4.86,-11.36 c 5.76,1.12 9.69,-6.25 4.22,-7.56 0.76,2.43 -2.94,4.15 -2.94,4.15 0,0 -1.4,-3.28 0.41,-5.12 -3.34,-1.64 -4.19,0.35 -4.26,2.43 1.32,1.75 2.19,3.81 2.57,6.1 z"
         inkscape:connector-curvature="0"
         style="fill:#ffffff" />
    </g>
    <circle
       style="opacity:0.98999999;fill:none;fill-opacity:1;stroke:none;stroke-width:0.02128322;stroke-linecap:round;stroke-linejoin:round;stroke-miterlimit:4;stroke-dasharray:none;stroke-dashoffset:0;stroke-opacity:1"
       id="path815-1"
       cx="275"
       cy="-22.00001"
       transform="rotate(90.000002)"
       r="16.25" />
    <g
       aria-label="Geschütztes IT Industriedenkmal"
       transform="matrix(0.26458333,0,0,0.26458333,-79.046118,222.9421)"
       style="font-style:normal;font-variant:normal;font-weight:normal;font-stretch:normal;font-size:26.66666603px;line-height:1.25;font-family:'Anything Better';-inkscape-font-specification:'Anything Better, Normal';font-variant-ligatures:normal;font-variant-caps:normal;font-variant-numeric:normal;font-feature-settings:normal;text-align:center;letter-spacing:0px;word-spacing:0px;writing-mode:lr-tb;text-anchor:middle;fill:#000000;fill-opacity:1;stroke:none"
       id="flowRoot986">
      <g
         transform="translate(298.75699,109.60464)"
         style="font-style:normal;font-variant:normal;font-weight:normal;font-stretch:normal;font-size:26.66666603px;line-height:1.25;font-family:Ebrima;-inkscape-font-specification:Ebrima;font-variant-ligatures:normal;font-variant-caps:normal;font-variant-numeric:normal;font-feature-settings:normal;text-align:center;letter-spacing:0px;word-spacing:0px;writing-mode:lr-tb;text-anchor:middle;fill:#000000;fill-opacity:1;stroke:none"
         id="flowRoot1264" />
      <g
         aria-label="Denkmalschutzrechtlich geschütze IT-Anlage"
         transform="translate(363.03159,107.05568)"
         style="font-style:normal;font-variant:normal;font-weight:normal;font-stretch:normal;font-size:26.66666603px;line-height:1.25;font-family:'Anything Better';-inkscape-font-specification:'Anything Better, Normal';font-variant-ligatures:normal;font-variant-caps:normal;font-variant-numeric:normal;font-feature-settings:normal;text-align:center;letter-spacing:0px;word-spacing:0px;writing-mode:lr-tb;text-anchor:middle;fill:#000000;fill-opacity:1;stroke:none"
         id="flowRoot1272">
        <path
           d="m -40.343752,105.79989 v -7.468755 h 2.645834 q 3.979166,0 3.979166,3.640625 0,1.74479 -1.088541,2.78646 -1.083334,1.04167 -2.890625,1.04167 z m 1.682292,-6.098963 v 4.734373 h 0.833333 q 1.09375,0 1.713542,-0.65625 0.625,-0.65625 0.625,-1.78646 0,-1.0677 -0.619792,-1.67708 -0.614583,-0.614583 -1.729166,-0.614583 z"
           style="font-style:normal;font-variant:normal;font-weight:bold;font-stretch:normal;font-size:10.66666698px;font-family:Ebrima;-inkscape-font-specification:'Ebrima Bold'"
           id="path1282"
           inkscape:connector-curvature="0" />
        <path
           d="m -27.838543,103.60197 h -3.479167 q 0.08333,1.16146 1.463542,1.16146 0.880208,0 1.546875,-0.41667 v 1.1875 q -0.739584,0.39583 -1.921875,0.39583 -1.291667,0 -2.005209,-0.71354 -0.713541,-0.71875 -0.713541,-2 0,-1.32812 0.770833,-2.10416 0.770833,-0.77605 1.895833,-0.77605 1.166667,0 1.802084,0.69271 0.640625,0.69271 0.640625,1.88021 z m -1.526042,-1.01042 q 0,-1.14583 -0.927083,-1.14583 -0.395834,0 -0.6875,0.32812 -0.286459,0.32813 -0.348959,0.81771 z"
           style="font-style:normal;font-variant:normal;font-weight:bold;font-stretch:normal;font-size:10.66666698px;font-family:Ebrima;-inkscape-font-specification:'Ebrima Bold'"
           id="path1284"
           inkscape:connector-curvature="0" />
        <path
           d="m -21.708334,105.79989 h -1.640625 v -2.96355 q 0,-1.23958 -0.885417,-1.23958 -0.427083,0 -0.703125,0.32813 -0.276042,0.32812 -0.276042,0.83333 v 3.04167 h -1.645833 v -5.33334 h 1.645833 v 0.84375 h 0.02083 q 0.588541,-0.97396 1.713541,-0.97396 1.770834,0 1.770834,2.19792 z"
           style="font-style:normal;font-variant:normal;font-weight:bold;font-stretch:normal;font-size:10.66666698px;font-family:Ebrima;-inkscape-font-specification:'Ebrima Bold'"
           id="path1286"
           inkscape:connector-curvature="0" />
        <path
           d="m -15.057292,105.79989 h -1.973958 l -1.703125,-2.64584 h -0.02083 v 2.64584 h -1.645833 v -7.895838 h 1.645833 v 5.026038 h 0.02083 l 1.588541,-2.46354 h 1.953125 l -1.911458,2.50521 z"
           style="font-style:normal;font-variant:normal;font-weight:bold;font-stretch:normal;font-size:10.66666698px;font-family:Ebrima;-inkscape-font-specification:'Ebrima Bold'"
           id="path1288"
           inkscape:connector-curvature="0" />
        <path
           d="m -5.9739598,105.79989 h -1.6406251 v -3.04167 q 0,-1.16146 -0.8541667,-1.16146 -0.40625,0 -0.6614583,0.34896 -0.2552084,0.34896 -0.2552084,0.86979 v 2.98438 h -1.6458337 v -3.07292 q 0,-1.13021 -0.838541,-1.13021 -0.421875,0 -0.677084,0.33333 -0.25,0.33334 -0.25,0.90625 v 2.96355 h -1.645833 v -5.33334 h 1.645833 v 0.83334 h 0.02083 q 0.255208,-0.42709 0.713541,-0.69271 0.463542,-0.27084 1.010417,-0.27084 1.1302084,0 1.546875,0.9948 0.6093751,-0.9948 1.7916668,-0.9948 1.7395834,0 1.7395834,2.14584 z"
           style="font-style:normal;font-variant:normal;font-weight:bold;font-stretch:normal;font-size:10.66666698px;font-family:Ebrima;-inkscape-font-specification:'Ebrima Bold'"
           id="path1290"
           inkscape:connector-curvature="0" />
        <path
           d="M -0.23437409,105.79989 H -1.7916658 v -0.76563 h -0.020833 q -0.5364584,0.89583 -1.5885418,0.89583 -0.7760416,0 -1.2239583,-0.4375 -0.4427084,-0.4427 -0.4427084,-1.17708 0,-1.55208 1.8385418,-1.79167 l 1.4479167,-0.1927 q 0,-0.875 -0.9479167,-0.875 -0.9531251,0 -1.8125001,0.5677 v -1.23958 q 0.34375,-0.17708 0.9375,-0.3125 0.5989584,-0.13542 1.0885417,-0.13542 2.28125011,0 2.28125011,2.27605 z m -1.54687501,-2.16667 v -0.35938 l -0.9687501,0.125 q -0.8020833,0.10417 -0.8020833,0.72396 0,0.28125 0.1927083,0.46354 0.1979167,0.17709 0.53125,0.17709 0.4635417,0 0.7552084,-0.31771 0.2916667,-0.32292 0.2916667,-0.8125 z"
           style="font-style:normal;font-variant:normal;font-weight:bold;font-stretch:normal;font-size:10.66666698px;font-family:Ebrima;-inkscape-font-specification:'Ebrima Bold'"
           id="path1292"
           inkscape:connector-curvature="0" />
        <path
           d="M 2.7239592,105.79989 H 1.0781258 v -7.895838 h 1.6458334 z"
           style="font-style:normal;font-variant:normal;font-weight:bold;font-stretch:normal;font-size:10.66666698px;font-family:Ebrima;-inkscape-font-specification:'Ebrima Bold'"
           id="path1294"
           inkscape:connector-curvature="0" />
        <path
           d="m 3.7708316,105.65926 v -1.33333 q 0.40625,0.24479 0.8072916,0.36458 0.4062501,0.11979 0.7656251,0.11979 0.4375,0 0.6875,-0.11979 0.2552083,-0.11979 0.2552083,-0.36458 0,-0.15625 -0.1145833,-0.26042 -0.1145833,-0.10417 -0.296875,-0.18229 -0.1770834,-0.0781 -0.390625,-0.14063 -0.2135417,-0.0625 -0.4114584,-0.14062 -0.3177083,-0.11979 -0.5625,-0.25521 -0.2395833,-0.14062 -0.40625,-0.32292 -0.1614583,-0.18229 -0.25,-0.42187 -0.083333,-0.23958 -0.083333,-0.56771 0,-0.44792 0.1927083,-0.77083 0.1979167,-0.32292 0.5208333,-0.52604 0.3281251,-0.20834 0.7447917,-0.30209 0.421875,-0.099 0.8750001,-0.099 0.3541666,0 0.71875,0.0573 0.3645833,0.0521 0.71875,0.15625 v 1.27083 q -0.3125,-0.18229 -0.671875,-0.27083 -0.3541667,-0.0937 -0.6979167,-0.0937 -0.1614583,0 -0.3072917,0.0312 -0.140625,0.026 -0.25,0.0833 -0.109375,0.0521 -0.171875,0.14062 -0.0625,0.0833 -0.0625,0.19271 0,0.14584 0.09375,0.25 0.09375,0.10417 0.2447917,0.18229 0.1510417,0.0729 0.3333333,0.13542 0.1875,0.0573 0.3697917,0.11979 0.328125,0.11459 0.59375,0.25 0.265625,0.13542 0.453125,0.31771 0.1927084,0.18229 0.2916667,0.42708 0.1041667,0.2448 0.1041667,0.58334 0,0.47396 -0.2083334,0.8125 -0.203125,0.33333 -0.546875,0.54687 -0.3385417,0.20834 -0.7864583,0.30209 -0.4427084,0.099 -0.9218751,0.099 -0.8802083,0 -1.6302083,-0.27083 z"
           style="font-style:normal;font-variant:normal;font-weight:bold;font-stretch:normal;font-size:10.66666698px;font-family:Ebrima;-inkscape-font-specification:'Ebrima Bold'"
           id="path1296"
           inkscape:connector-curvature="0" />
        <path
           d="m 12.848957,105.60718 q -0.557292,0.32291 -1.609375,0.32291 -1.229167,0 -1.9895838,-0.74479 -0.7604166,-0.74479 -0.7604166,-1.92187 0,-1.35938 0.8125,-2.14063 0.8177084,-0.78646 2.1822914,-0.78646 0.942709,0 1.364584,0.25 v 1.39584 q -0.515625,-0.38542 -1.151042,-0.38542 -0.708333,0 -1.125,0.41667 -0.411458,0.41146 -0.411458,1.14062 0,0.70834 0.395833,1.11459 0.395833,0.40104 1.088542,0.40104 0.614583,0 1.203125,-0.38542 z"
           style="font-style:normal;font-variant:normal;font-weight:bold;font-stretch:normal;font-size:10.66666698px;font-family:Ebrima;-inkscape-font-specification:'Ebrima Bold'"
           id="path1298"
           inkscape:connector-curvature="0" />
        <path
           d="m 19.052082,105.79989 h -1.640625 v -3.03125 q 0,-1.17188 -0.854167,-1.17188 -0.4375,0 -0.708333,0.32813 -0.270834,0.32812 -0.270834,0.83333 v 3.04167 H 13.93229 v -7.895838 h 1.645833 v 3.354168 h 0.02083 q 0.604166,-0.92188 1.640625,-0.92188 1.8125,0 1.8125,2.1875 z"
           style="font-style:normal;font-variant:normal;font-weight:bold;font-stretch:normal;font-size:10.66666698px;font-family:Ebrima;-inkscape-font-specification:'Ebrima Bold'"
           id="path1300"
           inkscape:connector-curvature="0" />
        <path
           d="m 25.416666,105.79989 h -1.640625 v -0.8125 H 23.75 q -0.609375,0.9427 -1.630209,0.9427 -1.854166,0 -1.854166,-2.24479 v -3.21875 h 1.640625 v 3.07292 q 0,1.13021 0.895833,1.13021 0.442708,0 0.708333,-0.30729 0.265625,-0.3125 0.265625,-0.84375 v -3.05209 h 1.640625 z"
           style="font-style:normal;font-variant:normal;font-weight:bold;font-stretch:normal;font-size:10.66666698px;font-family:Ebrima;-inkscape-font-specification:'Ebrima Bold'"
           id="path1302"
           inkscape:connector-curvature="0" />
        <path
           d="m 30.031248,105.73739 q -0.364583,0.1927 -1.098958,0.1927 -1.739583,0 -1.739583,-1.80729 v -2.44271 h -0.864584 v -1.21354 h 0.864584 v -1.15104 l 1.640625,-0.46875 v 1.61979 h 1.197916 v 1.21354 h -1.197916 v 2.15625 q 0,0.83334 0.661458,0.83334 0.260417,0 0.536458,-0.15104 z"
           style="font-style:normal;font-variant:normal;font-weight:bold;font-stretch:normal;font-size:10.66666698px;font-family:Ebrima;-inkscape-font-specification:'Ebrima Bold'"
           id="path1304"
           inkscape:connector-curvature="0" />
        <path
           d="m 35.177084,105.79989 h -4.786458 v -0.6823 l 2.677083,-3.4375 h -2.411458 v -1.21354 h 4.5 v 0.8125 l -2.536459,3.30729 h 2.557292 z"
           style="font-style:normal;font-variant:normal;font-weight:bold;font-stretch:normal;font-size:10.66666698px;font-family:Ebrima;-inkscape-font-specification:'Ebrima Bold'"
           id="path1306"
           inkscape:connector-curvature="0" />
        <path
           d="m 39.536457,101.95093 q -0.296875,-0.16146 -0.692709,-0.16146 -0.536458,0 -0.838541,0.39583 -0.302084,0.39063 -0.302084,1.06771 v 2.54688 H 36.05729 v -5.33334 h 1.645833 v 0.98959 h 0.02083 q 0.390625,-1.08334 1.40625,-1.08334 0.260416,0 0.40625,0.0625 z"
           style="font-style:normal;font-variant:normal;font-weight:bold;font-stretch:normal;font-size:10.66666698px;font-family:Ebrima;-inkscape-font-specification:'Ebrima Bold'"
           id="path1308"
           inkscape:connector-curvature="0" />
        <path
           d="M 45.098957,103.60197 H 41.61979 q 0.08333,1.16146 1.463542,1.16146 0.880208,0 1.546875,-0.41667 v 1.1875 q -0.739584,0.39583 -1.921875,0.39583 -1.291667,0 -2.005209,-0.71354 -0.713541,-0.71875 -0.713541,-2 0,-1.32812 0.770833,-2.10416 0.770833,-0.77605 1.895833,-0.77605 1.166667,0 1.802084,0.69271 0.640625,0.69271 0.640625,1.88021 z m -1.526042,-1.01042 q 0,-1.14583 -0.927083,-1.14583 -0.395834,0 -0.6875,0.32812 -0.286459,0.32813 -0.348959,0.81771 z"
           style="font-style:normal;font-variant:normal;font-weight:bold;font-stretch:normal;font-size:10.66666698px;font-family:Ebrima;-inkscape-font-specification:'Ebrima Bold'"
           id="path1310"
           inkscape:connector-curvature="0" />
        <path
           d="m 50.119793,105.60718 q -0.557292,0.32291 -1.609375,0.32291 -1.229167,0 -1.989584,-0.74479 -0.760417,-0.74479 -0.760417,-1.92187 0,-1.35938 0.8125,-2.14063 0.817709,-0.78646 2.182292,-0.78646 0.942709,0 1.364584,0.25 v 1.39584 q -0.515625,-0.38542 -1.151042,-0.38542 -0.708333,0 -1.125,0.41667 -0.411459,0.41146 -0.411459,1.14062 0,0.70834 0.395834,1.11459 0.395833,0.40104 1.088542,0.40104 0.614583,0 1.203125,-0.38542 z"
           style="font-style:normal;font-variant:normal;font-weight:bold;font-stretch:normal;font-size:10.66666698px;font-family:Ebrima;-inkscape-font-specification:'Ebrima Bold'"
           id="path1312"
           inkscape:connector-curvature="0" />
        <path
           d="m 56.322918,105.79989 h -1.640625 v -3.03125 q 0,-1.17188 -0.854167,-1.17188 -0.4375,0 -0.708333,0.32813 -0.270834,0.32812 -0.270834,0.83333 v 3.04167 h -1.645833 v -7.895838 h 1.645833 v 3.354168 h 0.02083 q 0.604167,-0.92188 1.640626,-0.92188 1.8125,0 1.8125,2.1875 z"
           style="font-style:normal;font-variant:normal;font-weight:bold;font-stretch:normal;font-size:10.66666698px;font-family:Ebrima;-inkscape-font-specification:'Ebrima Bold'"
           id="path1314"
           inkscape:connector-curvature="0" />
        <path
           d="m 60.843748,105.73739 q -0.364583,0.1927 -1.098958,0.1927 -1.739583,0 -1.739583,-1.80729 v -2.44271 h -0.864584 v -1.21354 h 0.864584 v -1.15104 l 1.640625,-0.46875 v 1.61979 h 1.197916 v 1.21354 h -1.197916 v 2.15625 q 0,0.83334 0.661458,0.83334 0.260417,0 0.536458,-0.15104 z"
           style="font-style:normal;font-variant:normal;font-weight:bold;font-stretch:normal;font-size:10.66666698px;font-family:Ebrima;-inkscape-font-specification:'Ebrima Bold'"
           id="path1316"
           inkscape:connector-curvature="0" />
        <path
           d="m 63.411459,105.79989 h -1.645833 v -7.895838 h 1.645833 z"
           style="font-style:normal;font-variant:normal;font-weight:bold;font-stretch:normal;font-size:10.66666698px;font-family:Ebrima;-inkscape-font-specification:'Ebrima Bold'"
           id="path1318"
           inkscape:connector-curvature="0" />
        <path
           d="m 65.640623,99.622802 q -0.416666,0 -0.682291,-0.244792 -0.265625,-0.25 -0.265625,-0.609375 0,-0.369791 0.265625,-0.604166 0.265625,-0.234375 0.682291,-0.234375 0.421875,0 0.682292,0.234375 0.265625,0.234375 0.265625,0.604166 0,0.375 -0.265625,0.614584 -0.260417,0.239583 -0.682292,0.239583 z m 0.8125,6.177088 H 64.80729 v -5.33334 h 1.645833 z"
           style="font-style:normal;font-variant:normal;font-weight:bold;font-stretch:normal;font-size:10.66666698px;font-family:Ebrima;-inkscape-font-specification:'Ebrima Bold'"
           id="path1320"
           inkscape:connector-curvature="0" />
        <path
           d="m 71.890628,105.60718 q -0.557291,0.32291 -1.609375,0.32291 -1.229166,0 -1.989583,-0.74479 -0.760417,-0.74479 -0.760417,-1.92187 0,-1.35938 0.8125,-2.14063 0.817709,-0.78646 2.182292,-0.78646 0.942708,0 1.364583,0.25 v 1.39584 q -0.515625,-0.38542 -1.151041,-0.38542 -0.708334,0 -1.125,0.41667 -0.411459,0.41146 -0.411459,1.14062 0,0.70834 0.395834,1.11459 0.395833,0.40104 1.088541,0.40104 0.614584,0 1.203125,-0.38542 z"
           style="font-style:normal;font-variant:normal;font-weight:bold;font-stretch:normal;font-size:10.66666698px;font-family:Ebrima;-inkscape-font-specification:'Ebrima Bold'"
           id="path1322"
           inkscape:connector-curvature="0" />
        <path
           d="m 78.093753,105.79989 h -1.640625 v -3.03125 q 0,-1.17188 -0.854166,-1.17188 -0.4375,0 -0.708334,0.32813 -0.270833,0.32812 -0.270833,0.83333 v 3.04167 h -1.645833 v -7.895838 h 1.645833 v 3.354168 h 0.02083 q 0.604167,-0.92188 1.640625,-0.92188 1.8125,0 1.8125,2.1875 z"
           style="font-style:normal;font-variant:normal;font-weight:bold;font-stretch:normal;font-size:10.66666698px;font-family:Ebrima;-inkscape-font-specification:'Ebrima Bold'"
           id="path1324"
           inkscape:connector-curvature="0" />
        <path
           d="m -29.349858,116.52384 q 0,1.48437 -0.859375,2.29687 -0.859375,0.81771 -2.489583,0.81771 -1.078125,0 -1.708334,-0.30729 v -1.38542 q 0.822917,0.47917 1.661459,0.47917 0.833333,0 1.291666,-0.44271 0.458334,-0.4375 0.458334,-1.19271 v -0.42187 h -0.02083 q -0.5625,0.89583 -1.661458,0.89583 -1.020833,0 -1.619792,-0.71875 -0.598958,-0.71875 -0.598958,-1.92708 0,-1.35417 0.666667,-2.15104 0.666666,-0.79688 1.755208,-0.79688 0.973958,0 1.458333,0.75 h 0.02083 v -0.61979 h 1.645833 z m -1.625,-1.95313 v -0.42187 q 0,-0.50521 -0.302083,-0.85938 -0.296875,-0.35937 -0.776042,-0.35937 -0.546875,0 -0.859375,0.42708 -0.3125,0.42709 -0.3125,1.20313 0,0.66666 0.296875,1.05729 0.296875,0.38542 0.8125,0.38542 0.510417,0 0.822917,-0.39063 0.317708,-0.39583 0.317708,-1.04167 z"
           style="font-style:normal;font-variant:normal;font-weight:bold;font-stretch:normal;font-size:10.66666698px;font-family:Ebrima;-inkscape-font-specification:'Ebrima Bold'"
           id="path1326"
           inkscape:connector-curvature="0" />
        <path
           d="m -23.183191,114.9353 h -3.479167 q 0.08333,1.16146 1.463542,1.16146 0.880208,0 1.546875,-0.41667 v 1.1875 q -0.739583,0.39583 -1.921875,0.39583 -1.291667,0 -2.005209,-0.71354 -0.713541,-0.71875 -0.713541,-2 0,-1.32812 0.770833,-2.10417 0.770834,-0.77604 1.895834,-0.77604 1.166666,0 1.802083,0.69271 0.640625,0.69271 0.640625,1.88021 z m -1.526042,-1.01042 q 0,-1.14583 -0.927083,-1.14583 -0.395833,0 -0.6875,0.32812 -0.286458,0.32813 -0.348958,0.81771 z"
           style="font-style:normal;font-variant:normal;font-weight:bold;font-stretch:normal;font-size:10.66666698px;font-family:Ebrima;-inkscape-font-specification:'Ebrima Bold'"
           id="path1328"
           inkscape:connector-curvature="0" />
        <path
           d="m -22.552983,116.99259 v -1.33333 q 0.40625,0.24479 0.807292,0.36458 0.40625,0.11979 0.765625,0.11979 0.4375,0 0.6875,-0.11979 0.255208,-0.11979 0.255208,-0.36458 0,-0.15625 -0.114583,-0.26042 -0.114584,-0.10417 -0.296875,-0.18229 -0.177084,-0.0781 -0.390625,-0.14063 -0.213542,-0.0625 -0.411459,-0.14062 -0.317708,-0.11979 -0.5625,-0.25521 -0.239583,-0.14063 -0.40625,-0.32292 -0.161458,-0.18229 -0.25,-0.42187 -0.08333,-0.23959 -0.08333,-0.56771 0,-0.44792 0.192708,-0.77083 0.197917,-0.32292 0.520834,-0.52605 0.328125,-0.20833 0.744791,-0.30208 0.421875,-0.099 0.875,-0.099 0.354167,0 0.71875,0.0573 0.364584,0.0521 0.71875,0.15625 v 1.27084 q -0.3125,-0.18229 -0.671875,-0.27084 -0.354166,-0.0937 -0.697916,-0.0937 -0.161459,0 -0.307292,0.0312 -0.140625,0.026 -0.25,0.0833 -0.109375,0.0521 -0.171875,0.14062 -0.0625,0.0833 -0.0625,0.19271 0,0.14583 0.09375,0.25 0.09375,0.10417 0.244792,0.18229 0.151041,0.0729 0.333333,0.13542 0.1875,0.0573 0.369792,0.11979 0.328125,0.11458 0.59375,0.25 0.265625,0.13542 0.453125,0.31771 0.192708,0.18229 0.291666,0.42708 0.104167,0.24479 0.104167,0.58334 0,0.47395 -0.208333,0.8125 -0.203125,0.33333 -0.546875,0.54687 -0.338542,0.20833 -0.786459,0.30208 -0.442708,0.099 -0.921875,0.099 -0.880208,0 -1.630208,-0.27083 z"
           style="font-style:normal;font-variant:normal;font-weight:bold;font-stretch:normal;font-size:10.66666698px;font-family:Ebrima;-inkscape-font-specification:'Ebrima Bold'"
           id="path1330"
           inkscape:connector-curvature="0" />
        <path
           d="m -13.474858,116.94051 q -0.557292,0.32291 -1.609375,0.32291 -1.229167,0 -1.989583,-0.74479 -0.760417,-0.74479 -0.760417,-1.92187 0,-1.35938 0.8125,-2.14063 0.817708,-0.78646 2.182292,-0.78646 0.942708,0 1.364583,0.25 v 1.39584 q -0.515625,-0.38542 -1.151042,-0.38542 -0.708333,0 -1.125,0.41667 -0.411458,0.41145 -0.411458,1.14062 0,0.70833 0.395833,1.11458 0.395834,0.40105 1.088542,0.40105 0.614583,0 1.203125,-0.38542 z"
           style="font-style:normal;font-variant:normal;font-weight:bold;font-stretch:normal;font-size:10.66666698px;font-family:Ebrima;-inkscape-font-specification:'Ebrima Bold'"
           id="path1332"
           inkscape:connector-curvature="0" />
        <path
           d="m -7.2717324,117.13321 h -1.6406253 v -3.03125 q 0,-1.17187 -0.854167,-1.17187 -0.4375003,0 -0.7083333,0.32812 -0.270834,0.32813 -0.270834,0.83334 v 3.04166 h -1.645833 v -7.89583 h 1.645833 v 3.35417 h 0.02083 q 0.604167,-0.92188 1.6406253,-0.92188 1.8125003,0 1.8125003,2.1875 z"
           style="font-style:normal;font-variant:normal;font-weight:bold;font-stretch:normal;font-size:10.66666698px;font-family:Ebrima;-inkscape-font-specification:'Ebrima Bold'"
           id="path1334"
           inkscape:connector-curvature="0" />
        <path
           d="M -0.90714807,117.13321 H -2.5477734 v -0.8125 h -0.02604 q -0.609375,0.94271 -1.630209,0.94271 -1.854167,0 -1.854167,-2.24479 v -3.21875 h 1.640625 v 3.07292 q 0,1.13021 0.895834,1.13021 0.442708,0 0.708333,-0.3073 0.265625,-0.3125 0.265625,-0.84375 v -3.05208 h 1.64062533 z m -1.36458343,-6.17708 q -0.3489579,0 -0.5729169,-0.20312 -0.223958,-0.20313 -0.223958,-0.51042 0,-0.31771 0.223958,-0.51563 0.223959,-0.19791 0.5729169,-0.19791 0.3489584,0 0.5729167,0.20312 0.2291667,0.19792 0.2291667,0.51042 0,0.3125 -0.2239584,0.51562 -0.2239583,0.19792 -0.578125,0.19792 z m -2.3854169,0 q -0.354167,0 -0.578125,-0.20312 -0.223958,-0.20834 -0.223958,-0.51042 0,-0.3125 0.229166,-0.51042 0.229167,-0.20312 0.572917,-0.20312 0.354167,0 0.572917,0.20312 0.223958,0.19792 0.223958,0.51042 0,0.31771 -0.223958,0.51562 -0.21875,0.19792 -0.572917,0.19792 z"
           style="font-style:normal;font-variant:normal;font-weight:bold;font-stretch:normal;font-size:10.66666698px;font-family:Ebrima;-inkscape-font-specification:'Ebrima Bold'"
           id="path1336"
           inkscape:connector-curvature="0" />
        <path
           d="m 3.7074339,117.07071 q -0.3645833,0.19271 -1.0989583,0.19271 -1.73958344,0 -1.73958344,-1.80729 v -2.44271 h -0.8645833 v -1.21354 h 0.8645833 v -1.15104 l 1.64062514,-0.46875 v 1.61979 h 1.1979166 v 1.21354 H 2.5095173 v 2.15625 q 0,0.83334 0.6614582,0.83334 0.2604167,0 0.5364584,-0.15105 z"
           style="font-style:normal;font-variant:normal;font-weight:bold;font-stretch:normal;font-size:10.66666698px;font-family:Ebrima;-inkscape-font-specification:'Ebrima Bold'"
           id="path1338"
           inkscape:connector-curvature="0" />
        <path
           d="m 8.8532703,117.13321 h -4.786459 v -0.68229 l 2.6770834,-3.4375 H 4.3324363 v -1.21354 h 4.5 v 0.8125 l -2.5364582,3.30729 h 2.5572922 z"
           style="font-style:normal;font-variant:normal;font-weight:bold;font-stretch:normal;font-size:10.66666698px;font-family:Ebrima;-inkscape-font-specification:'Ebrima Bold'"
           id="path1340"
           inkscape:connector-curvature="0" />
        <path
           d="m 18.875001,114.9353 h -3.479167 q 0.08333,1.16146 1.463542,1.16146 0.880208,0 1.546875,-0.41667 v 1.1875 q -0.739583,0.39583 -1.921875,0.39583 -1.291667,0 -2.005208,-0.71354 -0.713542,-0.71875 -0.713542,-2 0,-1.32812 0.770833,-2.10417 0.770834,-0.77604 1.895834,-0.77604 1.166666,0 1.802083,0.69271 0.640625,0.69271 0.640625,1.88021 z m -1.526042,-1.01042 q 0,-1.14583 -0.927083,-1.14583 -0.395833,0 -0.6875,0.32812 -0.286458,0.32813 -0.348958,0.81771 z"
           style="font-style:normal;font-variant:normal;font-weight:bold;font-stretch:normal;font-size:10.66666698px;font-family:Ebrima;-inkscape-font-specification:'Ebrima Bold'"
           id="path1342"
           inkscape:connector-curvature="0" />
        <path
           d="m 25.879364,109.66446 v 1.30209 h -0.625 v 4.86458 h 0.625 v 1.30208 h -2.932292 v -1.30208 h 0.625 v -4.86458 h -0.625 v -1.30209 z"
           style="font-style:normal;font-variant:normal;font-weight:bold;font-stretch:normal;font-size:10.66666698px;font-family:Ebrima;-inkscape-font-specification:'Ebrima Bold'"
           id="path1344"
           inkscape:connector-curvature="0" />
        <path
           d="m 32.191864,111.03426 h -2.130208 v 6.09895 h -1.6875 v -6.09895 h -2.119792 v -1.3698 h 5.9375 z"
           style="font-style:normal;font-variant:normal;font-weight:bold;font-stretch:normal;font-size:10.66666698px;font-family:Ebrima;-inkscape-font-specification:'Ebrima Bold'"
           id="path1346"
           inkscape:connector-curvature="0" />
        <path
           d="m 35.936656,114.86238 h -2.848959 v -1.15104 h 2.848959 z"
           style="font-style:normal;font-variant:normal;font-weight:bold;font-stretch:normal;font-size:10.66666698px;font-family:Ebrima;-inkscape-font-specification:'Ebrima Bold'"
           id="path1348"
           inkscape:connector-curvature="0" />
        <path
           d="m 44.077281,117.13321 h -1.833333 l -0.53125,-1.66145 h -2.656251 l -0.526041,1.66145 h -1.822917 l 2.71875,-7.46875 h 1.994792 z m -2.75,-2.95312 -0.802084,-2.51042 q -0.08854,-0.28125 -0.125,-0.67187 h -0.04167 q -0.02604,0.32812 -0.130209,0.65104 l -0.8125,2.53125 z"
           style="font-style:normal;font-variant:normal;font-weight:bold;font-stretch:normal;font-size:10.66666698px;font-family:Ebrima;-inkscape-font-specification:'Ebrima Bold'"
           id="path1350"
           inkscape:connector-curvature="0" />
        <path
           d="m 49.999156,117.13321 h -1.640625 v -2.96354 q 0,-1.23958 -0.885417,-1.23958 -0.427083,0 -0.703125,0.32812 -0.276042,0.32813 -0.276042,0.83334 v 3.04166 h -1.645833 v -5.33333 h 1.645833 v 0.84375 h 0.02083 q 0.588541,-0.97396 1.713541,-0.97396 1.770834,0 1.770834,2.19792 z"
           style="font-style:normal;font-variant:normal;font-weight:bold;font-stretch:normal;font-size:10.66666698px;font-family:Ebrima;-inkscape-font-specification:'Ebrima Bold'"
           id="path1352"
           inkscape:connector-curvature="0" />
        <path
           d="M 52.952283,117.13321 H 51.30645 v -7.89583 h 1.645833 z"
           style="font-style:normal;font-variant:normal;font-weight:bold;font-stretch:normal;font-size:10.66666698px;font-family:Ebrima;-inkscape-font-specification:'Ebrima Bold'"
           id="path1354"
           inkscape:connector-curvature="0" />
        <path
           d="m 58.785614,117.13321 h -1.557292 v -0.76562 h -0.02083 q -0.536458,0.89583 -1.588542,0.89583 -0.776041,0 -1.223958,-0.4375 -0.442708,-0.44271 -0.442708,-1.17708 0,-1.55208 1.838541,-1.79167 l 1.447917,-0.19271 q 0,-0.875 -0.947917,-0.875 -0.953125,0 -1.8125,0.56771 v -1.23958 q 0.34375,-0.17708 0.9375,-0.3125 0.598959,-0.13542 1.088542,-0.13542 2.28125,0 2.28125,2.27604 z m -1.546875,-2.16666 v -0.35938 l -0.96875,0.125 q -0.802083,0.10417 -0.802083,0.72396 0,0.28125 0.192708,0.46354 0.197917,0.17709 0.53125,0.17709 0.463542,0 0.755208,-0.31771 0.291667,-0.32292 0.291667,-0.8125 z"
           style="font-style:normal;font-variant:normal;font-weight:bold;font-stretch:normal;font-size:10.66666698px;font-family:Ebrima;-inkscape-font-specification:'Ebrima Bold'"
           id="path1356"
           inkscape:connector-curvature="0" />
        <path
           d="m 65.327281,116.52384 q 0,1.48437 -0.859375,2.29687 -0.859375,0.81771 -2.489584,0.81771 -1.078125,0 -1.708333,-0.30729 v -1.38542 q 0.822917,0.47917 1.661458,0.47917 0.833334,0 1.291667,-0.44271 0.458333,-0.4375 0.458333,-1.19271 v -0.42187 h -0.02083 q -0.5625,0.89583 -1.661458,0.89583 -1.020834,0 -1.619792,-0.71875 -0.598958,-0.71875 -0.598958,-1.92708 0,-1.35417 0.666666,-2.15104 0.666667,-0.79688 1.755209,-0.79688 0.973958,0 1.458333,0.75 h 0.02083 v -0.61979 h 1.645834 z m -1.625,-1.95313 v -0.42187 q 0,-0.50521 -0.302084,-0.85938 -0.296875,-0.35937 -0.776041,-0.35937 -0.546875,0 -0.859375,0.42708 -0.3125,0.42709 -0.3125,1.20313 0,0.66666 0.296875,1.05729 0.296875,0.38542 0.8125,0.38542 0.510416,0 0.822916,-0.39063 0.317709,-0.39583 0.317709,-1.04167 z"
           style="font-style:normal;font-variant:normal;font-weight:bold;font-stretch:normal;font-size:10.66666698px;font-family:Ebrima;-inkscape-font-specification:'Ebrima Bold'"
           id="path1358"
           inkscape:connector-curvature="0" />
        <path
           d="m 71.493945,114.9353 h -3.479167 q 0.08333,1.16146 1.463542,1.16146 0.880208,0 1.546875,-0.41667 v 1.1875 q -0.739583,0.39583 -1.921875,0.39583 -1.291667,0 -2.005208,-0.71354 -0.713542,-0.71875 -0.713542,-2 0,-1.32812 0.770833,-2.10417 0.770834,-0.77604 1.895834,-0.77604 1.166666,0 1.802083,0.69271 0.640625,0.69271 0.640625,1.88021 z m -1.526042,-1.01042 q 0,-1.14583 -0.927083,-1.14583 -0.395833,0 -0.6875,0.32812 -0.286458,0.32813 -0.348958,0.81771 z"
           style="font-style:normal;font-variant:normal;font-weight:bold;font-stretch:normal;font-size:10.66666698px;font-family:Ebrima;-inkscape-font-specification:'Ebrima Bold'"
           id="path1360"
           inkscape:connector-curvature="0" />
        <path
           d="m 13.056395,117.06535 q -0.364583,0.19271 -1.098958,0.19271 -1.739584,0 -1.739584,-1.80729 v -2.44271 H 9.3532703 v -1.21354 h 0.8645827 v -1.15104 l 1.640626,-0.46875 v 1.61979 h 1.197916 v 1.21354 h -1.197916 v 2.15625 q 0,0.83334 0.661458,0.83334 0.260417,0 0.536458,-0.15105 z"
           style="font-style:normal;font-variant:normal;font-weight:bold;font-stretch:normal;font-size:10.66666698px;line-height:1.25;font-family:Ebrima;-inkscape-font-specification:'Ebrima Bold';font-variant-ligatures:normal;font-variant-caps:normal;font-variant-numeric:normal;font-feature-settings:normal;text-align:center;letter-spacing:0px;word-spacing:0px;writing-mode:lr-tb;text-anchor:middle;fill:#000000;fill-opacity:1;stroke:none"
           id="path1338-1"
           inkscape:connector-curvature="0" />
      </g>
    </g>
    <flowRoot
       xml:space="preserve"
       id="flowRoot1106"
       style="font-style:normal;font-variant:normal;font-weight:normal;font-stretch:normal;font-size:26.6667px;line-height:1.25;font-family:'Anything Better';-inkscape-font-specification:'Anything Better, Normal';font-variant-ligatures:normal;font-variant-caps:normal;font-variant-numeric:normal;font-feature-settings:normal;text-align:center;letter-spacing:0px;word-spacing:0px;writing-mode:lr-tb;text-anchor:middle;fill:#000000;fill-opacity:1;stroke:none"
       transform="matrix(0.26458333,0,0,0.26458333,0,253)"><flowRegion
         id="flowRegion1108"><rect
           id="rect1110"
           width="120.11951"
           height="31.25"
           x="7.5590549"
           y="168.62064" /></flowRegion><flowPara
         id="flowPara1112" /></flowRoot>
    <g
       aria-label="Geschütztes IT Industriedenkmal"
       transform="matrix(0.26458333,0,0,0.26458333,-75.354831,234.89651)"
       style="font-style:normal;font-variant:normal;font-weight:normal;font-stretch:normal;font-size:26.66666603px;line-height:1.25;font-family:'Anything Better';-inkscape-font-specification:'Anything Better, Normal';font-variant-ligatures:normal;font-variant-caps:normal;font-variant-numeric:normal;font-feature-settings:normal;text-align:center;letter-spacing:0px;word-spacing:0px;writing-mode:lr-tb;text-anchor:middle;fill:#000000;fill-opacity:1;stroke:none"
       id="flowRoot986-5">
      <g
         aria-label="Reg.-Nr."
         transform="translate(257.38626,4.4817396)"
         style="font-style:normal;font-variant:normal;font-weight:normal;font-stretch:normal;font-size:26.66666603px;line-height:1.25;font-family:'Anything Better';-inkscape-font-specification:'Anything Better, Normal';font-variant-ligatures:normal;font-variant-caps:normal;font-variant-numeric:normal;font-feature-settings:normal;text-align:center;letter-spacing:0px;word-spacing:0px;writing-mode:lr-tb;text-anchor:middle;fill:#000000;fill-opacity:1;stroke:none"
         id="flowRoot1256">
        <path
           d="m 100.24022,188.7916 h -1.415237 l -0.85068,-1.4076 q -0.0954,-0.16022 -0.1831,-0.28611 -0.0877,-0.12583 -0.17928,-0.21362 -0.0877,-0.0915 -0.18693,-0.13725 -0.0954,-0.0497 -0.20981,-0.0497 h -0.33187 v 2.09424 h -1.23213 v -5.47023 h 1.95311 q 1.991246,0 1.991246,1.48772 0,0.28611 -0.0877,0.53024 -0.0877,0.24033 -0.247956,0.43488 -0.16022,0.19454 -0.3891,0.33569 -0.22506,0.14121 -0.50354,0.22125 v 0.0152 q 0.12202,0.0381 0.23651,0.12583 0.11441,0.0839 0.22125,0.19837 0.10679,0.11441 0.20218,0.24795 0.0992,0.12964 0.1793,0.25559 z m -3.356907,-4.54708 v 1.52205 h 0.53405 q 0.39674,0 0.63706,-0.22888 0.24414,-0.23269 0.24414,-0.57601 0,-0.71716 -0.8583,-0.71716 z"
           style="font-style:normal;font-variant:normal;font-weight:bold;font-stretch:normal;font-size:5.33333px;font-family:Ebrima;-inkscape-font-specification:'Ebrima Bold';stroke-width:1.46483"
           id="path963"
           inkscape:connector-curvature="0" />
        <path
           d="m 104.13882,187.18182 h -2.54822 q 0.0611,0.85068 1.07193,0.85068 0.64469,0 1.13296,-0.30519 v 0.86975 q -0.54168,0.28992 -1.40762,0.28992 -0.94603,0 -1.46864,-0.52261 -0.52261,-0.52643 -0.52261,-1.46483 0,-0.97274 0.56457,-1.54114 0.56457,-0.56839 1.38854,-0.56839 0.85449,0 1.31987,0.50736 0.46922,0.50735 0.46922,1.37709 z m -1.1177,-0.74005 q 0,-0.83923 -0.67903,-0.83923 -0.2899,0 -0.50353,0.24032 -0.20981,0.24034 -0.25559,0.59891 z"
           style="font-style:normal;font-variant:normal;font-weight:bold;font-stretch:normal;font-size:5.33333px;font-family:Ebrima;-inkscape-font-specification:'Ebrima Bold';stroke-width:1.46483"
           id="path965"
           inkscape:connector-curvature="0" />
        <path
           d="m 108.6859,188.3453 q 0,1.08717 -0.62941,1.68226 -0.62943,0.59891 -1.82343,0.59891 -0.78963,0 -1.2512,-0.22507 v -1.01471 q 0.60272,0.35096 1.21688,0.35096 0.61034,0 0.94603,-0.32425 0.3357,-0.32044 0.3357,-0.87356 v -0.30899 h -0.0152 q -0.41199,0.65613 -1.21689,0.65613 -0.74768,0 -1.18637,-0.52643 -0.43867,-0.52642 -0.43867,-1.41143 0,-0.99181 0.48827,-1.57546 0.48828,-0.58365 1.28554,-0.58365 0.71335,0 1.06812,0.54932 h 0.0152 v -0.45394 h 1.20543 z m -1.19018,-1.43052 v -0.30897 q 0,-0.37003 -0.22125,-0.62943 -0.21744,-0.26321 -0.56839,-0.26321 -0.40054,0 -0.62942,0.3128 -0.22888,0.31281 -0.22888,0.8812 0,0.48827 0.21744,0.77437 0.21744,0.28229 0.59509,0.28229 0.37384,0 0.60272,-0.2861 0.23269,-0.28992 0.23269,-0.76295 z"
           style="font-style:normal;font-variant:normal;font-weight:bold;font-stretch:normal;font-size:5.33333px;font-family:Ebrima;-inkscape-font-specification:'Ebrima Bold';stroke-width:1.46483"
           id="path967"
           inkscape:connector-curvature="0" />
        <path
           d="m 110.23084,188.88698 q -0.29753,0 -0.4959,-0.18311 -0.19837,-0.1831 -0.19837,-0.45012 0,-0.27466 0.20218,-0.45013 0.206,-0.17549 0.51116,-0.17549 0.309,0 0.50354,0.1793 0.19837,0.17547 0.19837,0.44632 0,0.27846 -0.20218,0.45776 -0.19836,0.17547 -0.5188,0.17547 z"
           style="font-style:normal;font-variant:normal;font-weight:bold;font-stretch:normal;font-size:5.33333px;font-family:Ebrima;-inkscape-font-specification:'Ebrima Bold';stroke-width:1.46483"
           id="path969"
           inkscape:connector-curvature="0" />
        <path
           d="m 113.9387,187.12842 h -2.08662 v -0.84305 h 2.08662 z"
           style="font-style:normal;font-variant:normal;font-weight:bold;font-stretch:normal;font-size:5.33333px;font-family:Ebrima;-inkscape-font-specification:'Ebrima Bold';stroke-width:1.46483"
           id="path971"
           inkscape:connector-curvature="0" />
        <path
           d="m 120.01166,188.7916 h -1.24357 l -2.25448,-3.43701 q -0.19836,-0.30136 -0.27466,-0.45395 h -0.0152 q 0.0305,0.28992 0.0305,0.88501 v 3.00595 h -1.16347 v -5.47023 h 1.32751 l 2.17054,3.33021 q 0.14877,0.22506 0.27466,0.44631 h 0.0152 q -0.0305,-0.19072 -0.0305,-0.75149 v -3.02503 h 1.16347 z"
           style="font-style:normal;font-variant:normal;font-weight:bold;font-stretch:normal;font-size:5.33333px;font-family:Ebrima;-inkscape-font-specification:'Ebrima Bold';stroke-width:1.46483"
           id="path973"
           inkscape:connector-curvature="0" />
        <path
           d="m 123.70045,185.97257 q -0.21743,-0.11821 -0.50735,-0.11821 -0.39291,0 -0.61416,0.28991 -0.22125,0.28611 -0.22125,0.78201 v 1.86537 h -1.20544 v -3.90622 h 1.20544 v 0.72479 h 0.0152 q 0.28611,-0.79346 1.02997,-0.79346 0.19073,0 0.29753,0.0457 z"
           style="font-style:normal;font-variant:normal;font-weight:bold;font-stretch:normal;font-size:5.33333px;font-family:Ebrima;-inkscape-font-specification:'Ebrima Bold';stroke-width:1.46483"
           id="path975"
           inkscape:connector-curvature="0" />
        <path
           d="m 124.8029,188.88698 q -0.29755,0 -0.49591,-0.18311 -0.19836,-0.1831 -0.19836,-0.45012 0,-0.27466 0.20217,-0.45013 0.206,-0.17549 0.51117,-0.17549 0.30899,0 0.50354,0.1793 0.19837,0.17547 0.19837,0.44632 0,0.27846 -0.2022,0.45776 -0.19835,0.17547 -0.51878,0.17547 z"
           style="font-style:normal;font-variant:normal;font-weight:bold;font-stretch:normal;font-size:5.33333px;font-family:Ebrima;-inkscape-font-specification:'Ebrima Bold';stroke-width:1.46483"
           id="path977"
           inkscape:connector-curvature="0" />
        <g
           aria-label="188954-GFI-8/24"
           transform="translate(19.928386,63.742027)"
           id="text1559"
           style="font-size:8px;font-family:Alef;-inkscape-font-specification:Alef;white-space:pre;shape-inside:url(#rect1561);display:inline">
          <path
             d="m 62.533203,134.64844 h -0.796875 v -4.8125 l -0.808594,0.49609 v -0.82422 l 0.808594,-0.53906 h 0.796875 z"
             style="font-family:Bahnschrift;-inkscape-font-specification:Bahnschrift"
             id="path958" />
          <path
             d="m 65.486328,134.70703 q -0.515625,0 -0.90625,-0.19531 -0.390625,-0.19531 -0.605469,-0.55078 -0.210937,-0.35938 -0.210937,-0.83203 v -0.0937 q 0,-0.42579 0.210937,-0.80079 0.214844,-0.375 0.570313,-0.5664 -0.300781,-0.16406 -0.484375,-0.47266 -0.179688,-0.3125 -0.179688,-0.65625 v -0.13672 q 0,-0.44531 0.199219,-0.78125 0.199219,-0.33984 0.5625,-0.52343 0.363281,-0.1875 0.84375,-0.1875 0.480469,0 0.84375,0.1875 0.363281,0.18359 0.5625,0.52343 0.199219,0.33594 0.199219,0.78125 v 0.13672 q 0,0.35156 -0.1875,0.66016 -0.183594,0.30859 -0.488281,0.46875 0.359375,0.19531 0.574218,0.57031 0.21875,0.37109 0.21875,0.79688 v 0.0937 q 0,0.47265 -0.214843,0.83203 -0.210938,0.35547 -0.601563,0.55078 -0.390625,0.19531 -0.90625,0.19531 z m 0,-0.76562 q 0.277344,0 0.488281,-0.10938 0.210938,-0.10937 0.324219,-0.30469 0.117188,-0.19922 0.117188,-0.45703 v -0.0547 q 0,-0.26171 -0.117188,-0.45703 -0.113281,-0.19922 -0.324219,-0.30859 -0.210937,-0.10938 -0.488281,-0.10938 -0.277344,0 -0.488281,0.10938 -0.210938,0.10937 -0.328125,0.30859 -0.113281,0.19922 -0.113281,0.46094 v 0.0586 q 0,0.25782 0.113281,0.45313 0.117187,0.19531 0.328125,0.30469 0.210937,0.10547 0.488281,0.10547 z m 0,-2.56641 q 0.238281,0 0.421875,-0.10156 0.183594,-0.10547 0.285156,-0.29688 0.101563,-0.1914 0.101563,-0.4414 v -0.0547 q 0,-0.23828 -0.101563,-0.42188 -0.101562,-0.18359 -0.285156,-0.28125 -0.183594,-0.10156 -0.421875,-0.10156 -0.238281,0 -0.421875,0.10156 -0.183594,0.0977 -0.285156,0.28125 -0.101563,0.1836 -0.101563,0.42578 v 0.0586 q 0,0.24609 0.101563,0.4375 0.101562,0.1875 0.285156,0.29297 0.183594,0.10156 0.421875,0.10156 z"
             style="font-family:Bahnschrift;-inkscape-font-specification:Bahnschrift"
             id="path960" />
          <path
             d="m 69.986328,134.70703 q -0.515625,0 -0.90625,-0.19531 -0.390625,-0.19531 -0.605469,-0.55078 -0.210937,-0.35938 -0.210937,-0.83203 v -0.0937 q 0,-0.42579 0.210937,-0.80079 0.214844,-0.375 0.570313,-0.5664 -0.300781,-0.16406 -0.484375,-0.47266 -0.179688,-0.3125 -0.179688,-0.65625 v -0.13672 q 0,-0.44531 0.199219,-0.78125 0.199219,-0.33984 0.5625,-0.52343 0.363281,-0.1875 0.84375,-0.1875 0.480469,0 0.84375,0.1875 0.363281,0.18359 0.5625,0.52343 0.199219,0.33594 0.199219,0.78125 v 0.13672 q 0,0.35156 -0.1875,0.66016 -0.183594,0.30859 -0.488281,0.46875 0.359375,0.19531 0.574218,0.57031 0.21875,0.37109 0.21875,0.79688 v 0.0937 q 0,0.47265 -0.214843,0.83203 -0.210938,0.35547 -0.601563,0.55078 -0.390625,0.19531 -0.90625,0.19531 z m 0,-0.76562 q 0.277344,0 0.488281,-0.10938 0.210938,-0.10937 0.324219,-0.30469 0.117188,-0.19922 0.117188,-0.45703 v -0.0547 q 0,-0.26171 -0.117188,-0.45703 -0.113281,-0.19922 -0.324219,-0.30859 -0.210937,-0.10938 -0.488281,-0.10938 -0.277344,0 -0.488281,0.10938 -0.210938,0.10937 -0.328125,0.30859 -0.113281,0.19922 -0.113281,0.46094 v 0.0586 q 0,0.25782 0.113281,0.45313 0.117187,0.19531 0.328125,0.30469 0.210937,0.10547 0.488281,0.10547 z m 0,-2.56641 q 0.238281,0 0.421875,-0.10156 0.183594,-0.10547 0.285156,-0.29688 0.101563,-0.1914 0.101563,-0.4414 v -0.0547 q 0,-0.23828 -0.101563,-0.42188 -0.101562,-0.18359 -0.285156,-0.28125 -0.183594,-0.10156 -0.421875,-0.10156 -0.238281,0 -0.421875,0.10156 -0.183594,0.0977 -0.285156,0.28125 -0.101563,0.1836 -0.101563,0.42578 v 0.0586 q 0,0.24609 0.101563,0.4375 0.101562,0.1875 0.285156,0.29297 0.183594,0.10156 0.421875,0.10156 z"
             style="font-family:Bahnschrift;-inkscape-font-specification:Bahnschrift"
             id="path962" />
          <path
             d="m 74.833984,131.82812 -0.0039,0.14063 q -0.09766,0.17969 -0.296875,0.26562 -0.195312,0.082 -0.464844,0.082 -0.40625,0 -0.714843,-0.20704 -0.308594,-0.20703 -0.480469,-0.58203 -0.167969,-0.3789 -0.167969,-0.875 v -0.004 q 0,-0.55078 0.183594,-0.94141 0.1875,-0.39062 0.542969,-0.59375 0.359375,-0.20312 0.859375,-0.20312 0.5,0 0.855468,0.20703 0.355469,0.20703 0.539063,0.60156 0.1875,0.39453 0.1875,0.94922 v 0.004 q 0,0.30469 -0.07813,0.65235 -0.07813,0.34375 -0.222656,0.68359 -0.02344,0.0508 -0.04687,0.10547 -0.02344,0.0508 -0.05078,0.10156 l -1.210937,2.4336 h -0.859375 z m -0.542968,-0.23828 q 0.375,0 0.578125,-0.2539 0.207031,-0.25391 0.207031,-0.71485 v -0.004 q 0,-0.44922 -0.207031,-0.69532 -0.203125,-0.24609 -0.578125,-0.24609 -0.378907,0 -0.585938,0.24609 -0.203125,0.2461 -0.203125,0.69922 v 0.004 q 0,0.46094 0.203125,0.71484 0.207031,0.25 0.585938,0.25 z"
             style="font-family:Bahnschrift;-inkscape-font-specification:Bahnschrift"
             id="path964" />
          <path
             d="m 78.513672,134.70703 q -0.429688,0 -0.765625,-0.16797 -0.332031,-0.16797 -0.542969,-0.48828 -0.207031,-0.32031 -0.277344,-0.76953 v -0.004 h 0.796875 v 0.004 q 0.04297,0.3125 0.25,0.48828 0.207032,0.17188 0.539063,0.17188 0.382812,0 0.589844,-0.25391 0.210937,-0.25781 0.210937,-0.72266 v -0.47656 q 0,-0.46094 -0.210937,-0.71484 -0.207032,-0.25782 -0.589844,-0.25782 -0.207031,0 -0.398438,0.11719 -0.191406,0.11719 -0.335937,0.32813 h -0.726563 v -2.99219 h 2.894532 v 0.75781 h -2.097657 v 1.27735 q 0.148438,-0.1211 0.332032,-0.1875 0.183593,-0.0664 0.375,-0.0664 0.492187,0 0.839843,0.20312 0.351563,0.20313 0.53125,0.59375 0.183594,0.39063 0.183594,0.94141 v 0.47656 q 0,0.55078 -0.1875,0.94141 -0.1875,0.39062 -0.546875,0.59766 -0.359375,0.20312 -0.863281,0.20312 z"
             style="font-family:Bahnschrift;-inkscape-font-specification:Bahnschrift"
             id="path966" />
          <path
             d="m 81.205078,133.08594 1.90625,-4.11328 h 0.820313 l -1.859375,4.0664 h 2.785156 v 0.73828 h -3.652344 z m 2.449219,-1.77735 h 0.777344 v 3.34375 h -0.777344 z"
             style="font-family:Bahnschrift;-inkscape-font-specification:Bahnschrift"
             id="path968" />
          <path
             d="m 88.498047,132.23437 v 0.75782 h -2.625 v -0.75782 z"
             style="font-family:Bahnschrift;-inkscape-font-specification:Bahnschrift"
             id="path970" />
          <path
             d="m 93.669922,131.58984 v 0.99219 q 0,0.63281 -0.246094,1.11719 -0.246094,0.48047 -0.699219,0.74609 -0.449218,0.26172 -1.042968,0.26172 -0.601563,0 -1.058594,-0.24609 -0.453125,-0.25 -0.703125,-0.70313 -0.25,-0.45312 -0.25,-1.05078 v -1.67578 q 0,-0.63281 0.246094,-1.11328 0.246093,-0.48047 0.695312,-0.74219 0.453125,-0.26562 1.046875,-0.26562 0.488281,0 0.898438,0.21093 0.414062,0.20703 0.691406,0.58985 0.277344,0.38281 0.375,0.88672 v 0 h -0.863281 v 0 q -0.07031,-0.28516 -0.238282,-0.48829 -0.167968,-0.20703 -0.394531,-0.3125 -0.226562,-0.10937 -0.46875,-0.10937 -0.351562,0 -0.617187,0.16797 -0.265625,0.16797 -0.410157,0.47265 -0.144531,0.30079 -0.144531,0.70313 v 1.67578 q 0,0.36719 0.148438,0.64453 0.148437,0.27344 0.417968,0.42578 0.273438,0.15235 0.628907,0.15235 0.351562,0 0.617187,-0.15625 0.265625,-0.16016 0.410156,-0.46094 0.144532,-0.30078 0.144532,-0.71484 v -0.2461 h -1.152344 v -0.76172 z"
             style="font-family:Bahnschrift;-inkscape-font-specification:Bahnschrift"
             id="path972" />
          <path
             d="m 94.880859,128.96875 h 0.796875 v 5.67969 H 94.880859 Z M 95.271484,131.5 h 2.753907 v 0.75781 h -2.753907 z m 0,-2.53125 h 3.183594 v 0.75781 h -3.183594 z"
             style="font-family:Bahnschrift;-inkscape-font-specification:Bahnschrift"
             id="path974" />
          <path
             d="m 100.22852,134.64844 h -0.796879 v -5.67969 h 0.796879 z"
             style="font-family:Bahnschrift;-inkscape-font-specification:Bahnschrift"
             id="path976" />
          <path
             d="m 104.18164,132.23437 v 0.75782 h -2.625 v -0.75782 z"
             style="font-family:Bahnschrift;-inkscape-font-specification:Bahnschrift"
             id="path978" />
          <path
             d="m 107.01758,134.70703 q -0.51563,0 -0.90625,-0.19531 -0.39063,-0.19531 -0.60547,-0.55078 -0.21094,-0.35938 -0.21094,-0.83203 v -0.0937 q 0,-0.42579 0.21094,-0.80079 0.21484,-0.375 0.57031,-0.5664 -0.30078,-0.16406 -0.48437,-0.47266 -0.17969,-0.3125 -0.17969,-0.65625 v -0.13672 q 0,-0.44531 0.19922,-0.78125 0.19922,-0.33984 0.5625,-0.52343 0.36328,-0.1875 0.84375,-0.1875 0.48047,0 0.84375,0.1875 0.36328,0.18359 0.5625,0.52343 0.19922,0.33594 0.19922,0.78125 v 0.13672 q 0,0.35156 -0.1875,0.66016 -0.1836,0.30859 -0.48828,0.46875 0.35937,0.19531 0.57421,0.57031 0.21875,0.37109 0.21875,0.79688 v 0.0937 q 0,0.47265 -0.21484,0.83203 -0.21094,0.35547 -0.60156,0.55078 -0.39063,0.19531 -0.90625,0.19531 z m 0,-0.76562 q 0.27734,0 0.48828,-0.10938 0.21094,-0.10937 0.32422,-0.30469 0.11719,-0.19922 0.11719,-0.45703 v -0.0547 q 0,-0.26171 -0.11719,-0.45703 -0.11328,-0.19922 -0.32422,-0.30859 -0.21094,-0.10938 -0.48828,-0.10938 -0.27735,0 -0.48828,0.10938 -0.21094,0.10937 -0.32813,0.30859 -0.11328,0.19922 -0.11328,0.46094 v 0.0586 q 0,0.25782 0.11328,0.45313 0.11719,0.19531 0.32813,0.30469 0.21093,0.10547 0.48828,0.10547 z m 0,-2.56641 q 0.23828,0 0.42187,-0.10156 0.1836,-0.10547 0.28516,-0.29688 0.10156,-0.1914 0.10156,-0.4414 v -0.0547 q 0,-0.23828 -0.10156,-0.42188 -0.10156,-0.18359 -0.28516,-0.28125 -0.18359,-0.10156 -0.42187,-0.10156 -0.23828,0 -0.42188,0.10156 -0.18359,0.0977 -0.28515,0.28125 -0.10157,0.1836 -0.10157,0.42578 v 0.0586 q 0,0.24609 0.10157,0.4375 0.10156,0.1875 0.28515,0.29297 0.1836,0.10156 0.42188,0.10156 z"
             style="font-family:Bahnschrift;-inkscape-font-specification:Bahnschrift"
             id="path980" />
          <path
             d="m 109.99023,135.72656 h -0.76171 l 2.63671,-7.42969 h 0.76172 z"
             style="font-family:Bahnschrift;-inkscape-font-specification:Bahnschrift"
             id="path982" />
          <path
             d="m 112.79492,133.95703 1.98047,-2.64062 q 0.17188,-0.22657 0.26563,-0.46875 0.0977,-0.2461 0.0977,-0.45704 v -0.008 q 0,-0.33984 -0.19922,-0.52734 -0.19922,-0.1875 -0.5664,-0.1875 -0.34766,0 -0.5625,0.20703 -0.21485,0.20312 -0.26172,0.57812 v 0.004 h -0.82422 v -0.004 q 0.0703,-0.48828 0.28516,-0.83203 0.21875,-0.34765 0.5625,-0.52734 0.34375,-0.18359 0.79296,-0.18359 0.50782,0 0.86719,0.17578 0.35938,0.17187 0.54688,0.5039 0.1875,0.33203 0.1875,0.80078 v 0.004 q 0,0.30078 -0.125,0.62891 -0.125,0.32812 -0.34766,0.63281 l -1.64453,2.23437 h 2.14844 v 0.75782 h -3.20313 z"
             style="font-family:Bahnschrift;-inkscape-font-specification:Bahnschrift"
             id="path984" />
          <path
             d="m 116.70117,133.08594 1.90625,-4.11328 h 0.82031 l -1.85937,4.0664 h 2.78516 v 0.73828 h -3.65235 z m 2.44922,-1.77735 h 0.77734 v 3.34375 h -0.77734 z"
             style="font-family:Bahnschrift;-inkscape-font-specification:Bahnschrift"
             id="path986" />
        </g>
      </g>
    </g>
    <g
       aria-label="Ministerium für Kultur und Medien"
       style="font-style:normal;font-variant:normal;font-weight:normal;font-stretch:normal;font-size:7.05555534px;line-height:1.25;font-family:'Anything Better';-inkscape-font-specification:'Anything Better, Normal';font-variant-ligatures:normal;font-variant-caps:normal;font-variant-numeric:normal;font-feature-settings:normal;text-align:center;letter-spacing:0px;word-spacing:0px;writing-mode:lr-tb;text-anchor:middle;fill:#000000;fill-opacity:1;stroke:none;stroke-width:0.26458332"
       id="text1385">
      <path
         d="m 5.8366566,272.88925 -0.025388,0.49389 -1.3283975,-0.0683 q -0.2152066,-0.0111 -0.4743574,-0.043 l -6.367e-4,0.0124 q 0.2023793,0.0492 0.290586,0.0848 l 1.482802,0.5978 -0.02101,0.40874 -1.5212782,0.4527 q -0.061496,0.0186 -0.3132311,0.0538 l -7.163e-4,0.0139 q 0.3292634,-0.003 0.5769832,0.009 l 1.2277613,0.0631 -0.023159,0.45054 -2.2201889,-0.11412 0.037644,-0.73233 1.3393299,-0.38598 q 0.1607068,-0.0461 0.3214498,-0.0627 l 4.775e-4,-0.009 Q 5.003234,274.06345 4.8693757,274.01 l -1.2895966,-0.52113 0.036689,-0.71374 z"
         style="font-style:normal;font-variant:normal;font-weight:bold;font-stretch:normal;font-size:3.17499995px;font-family:Ebrima;-inkscape-font-specification:'Ebrima Bold';stroke-width:0.26458332"
         id="path903"
         inkscape:connector-curvature="0" />
      <path
         d="m 4.179644,271.88051 q -0.021246,0.12219 -0.1065775,0.1876 -0.086859,0.0652 -0.1922474,0.0468 -0.1084437,-0.0189 -0.1636311,-0.10871 -0.055187,-0.0898 -0.033941,-0.21204 0.021512,-0.12371 0.1035227,-0.18813 0.082276,-0.0659 0.1907201,-0.0471 0.1099711,0.0191 0.1666858,0.10924 0.05698,0.0886 0.035468,0.2123 z m 1.8528977,0.0767 -0.083923,0.48265 -1.5640326,-0.27195 0.083923,-0.48265 z"
         style="font-style:normal;font-variant:normal;font-weight:bold;font-stretch:normal;font-size:3.17499995px;font-family:Ebrima;-inkscape-font-specification:'Ebrima Bold';stroke-width:0.26458332"
         id="path905"
         inkscape:connector-curvature="0" />
      <path
         d="m 6.4934609,270.06422 -0.1253952,0.47197 -0.8525399,-0.2265 q -0.3565984,-0.0947 -0.424272,0.15997 -0.032642,0.12286 0.040653,0.22735 0.073295,0.10449 0.2186318,0.1431 l 0.8750145,0.23248 -0.1257932,0.47347 -1.5342721,-0.40764 0.1257933,-0.47347 0.2427266,0.0645 0.00159,-0.006 q -0.2352014,-0.24375 -0.1492161,-0.56739 0.1353472,-0.50942 0.7676351,-0.34143 z"
         style="font-style:normal;font-variant:normal;font-weight:bold;font-stretch:normal;font-size:3.17499995px;font-family:Ebrima;-inkscape-font-specification:'Ebrima Bold';stroke-width:0.26458332"
         id="path907"
         inkscape:connector-curvature="0" />
      <path
         d="m 4.9877556,268.84023 q -0.04222,0.11662 -0.1376473,0.16615 -0.096885,0.049 -0.1974661,0.0126 -0.1034967,-0.0375 -0.1421778,-0.13556 -0.038681,-0.0981 0.00354,-0.21471 0.042748,-0.11807 0.1347319,-0.16721 0.092512,-0.0506 0.1960084,-0.0131 0.1049544,0.038 0.1450932,0.13662 0.040667,0.0972 -0.00208,0.21523 z m 1.8111604,0.39851 -0.1667694,0.46064 -1.492684,-0.54042 0.1667694,-0.46063 z"
         style="font-style:normal;font-variant:normal;font-weight:bold;font-stretch:normal;font-size:3.17499995px;font-family:Ebrima;-inkscape-font-specification:'Ebrima Bold';stroke-width:0.26458332"
         id="path909"
         inkscape:connector-curvature="0" />
      <path
         d="m 6.8656358,268.92771 -0.3626054,-0.16133 q 0.115727,-0.0809 0.1968295,-0.17543 0.081733,-0.096 0.125216,-0.19372 0.052936,-0.11898 0.050607,-0.20147 -0.0017,-0.0839 -0.06827,-0.11351 -0.042493,-0.0189 -0.084686,-3.5e-4 -0.042193,0.0186 -0.085496,0.0587 -0.042673,0.0387 -0.085508,0.0892 -0.042835,0.0505 -0.088029,0.0949 -0.071019,0.0719 -0.1374656,0.12209 -0.067232,0.0481 -0.1369734,0.0714 -0.069111,0.0219 -0.1449798,0.0169 -0.075239,-0.006 -0.1644737,-0.046 -0.1218128,-0.0542 -0.1863142,-0.14568 -0.063871,-0.0929 -0.08004,-0.20529 -0.016955,-0.11445 0.00796,-0.2391 0.024133,-0.12671 0.07896,-0.24994 0.042853,-0.0963 0.1025471,-0.18853 0.058278,-0.0928 0.1294592,-0.17656 l 0.3456083,0.15376 q -0.087386,0.0629 -0.1549489,0.14995 -0.068349,0.085 -0.1099413,0.17846 -0.019536,0.0439 -0.028683,0.0874 -0.00993,0.0414 -0.00759,0.0781 9.302e-4,0.036 0.017447,0.0638 0.015101,0.0271 0.044846,0.0403 0.03966,0.0177 0.079332,0.005 0.039672,-0.0129 0.079194,-0.0445 0.038105,-0.0323 0.077159,-0.0743 0.038268,-0.0441 0.077321,-0.0861 0.070863,-0.0754 0.1398303,-0.13122 0.068967,-0.0559 0.1412288,-0.0848 0.072892,-0.0303 0.1514377,-0.0276 0.079176,10e-4 0.1712438,0.0423 0.1288949,0.0573 0.195755,0.15497 0.066074,0.0956 0.082555,0.21489 0.015695,0.11728 -0.013006,0.25044 -0.026654,0.13237 -0.084632,0.26268 -0.1065023,0.23937 -0.2709041,0.41057 z"
         style="font-style:normal;font-variant:normal;font-weight:bold;font-stretch:normal;font-size:3.17499995px;font-family:Ebrima;-inkscape-font-specification:'Ebrima Bold';stroke-width:0.26458332"
         id="path911"
         inkscape:connector-curvature="0" />
      <path
         d="m 7.9751815,266.73214 q -0.00167,0.12274 -0.1064367,0.31459 -0.2481732,0.45445 -0.7203112,0.19661 l -0.6381348,-0.34848 -0.1233435,0.22587 -0.3170264,-0.17313 0.1233435,-0.22586 -0.3006989,-0.16421 0.1115989,-0.49548 0.4231555,0.23109 0.1708976,-0.31295 0.3170265,0.17313 -0.1708977,0.31294 0.5633002,0.30762 q 0.2177005,0.11889 0.3120658,-0.0539 0.037152,-0.068 0.037074,-0.1617 z"
         style="font-style:normal;font-variant:normal;font-weight:bold;font-stretch:normal;font-size:3.17499995px;font-family:Ebrima;-inkscape-font-specification:'Ebrima Bold';stroke-width:0.26458332"
         id="path913"
         inkscape:connector-curvature="0" />
      <path
         d="m 8.3811757,264.95444 -0.5767391,0.86013 q 0.3009546,0.17193 0.5297508,-0.16929 0.1459116,-0.21761 0.1534144,-0.45149 l 0.2935786,0.19685 q -0.024741,0.24846 -0.2207283,0.54075 -0.2141188,0.31933 -0.5088068,0.37745 -0.2959757,0.0573 -0.6127316,-0.15513 -0.3283445,-0.22017 -0.3924202,-0.53938 -0.064076,-0.31921 0.1224148,-0.59734 0.1933975,-0.28843 0.4699843,-0.33069 0.2774502,-0.0436 0.5710289,0.15331 z m -0.5027703,0.20977 q -0.2832776,-0.18994 -0.4369596,0.0393 -0.065617,0.0979 -0.032846,0.22436 0.033634,0.12521 0.1443106,0.22182 z"
         style="font-style:normal;font-variant:normal;font-weight:bold;font-stretch:normal;font-size:3.17499995px;font-family:Ebrima;-inkscape-font-specification:'Ebrima Bold';stroke-width:0.26458332"
         id="path915"
         inkscape:connector-curvature="0" />
      <path
         d="m 8.8746357,263.56707 q -0.093016,0.0383 -0.1672972,0.12975 -0.1006709,0.12395 -0.065903,0.26803 0.033565,0.1431 0.1900044,0.27016 l 0.5884525,0.47794 -0.3088544,0.38027 -1.2322606,-1.00085 0.3088544,-0.38027 0.2286422,0.18571 0.00391,-0.005 q -0.1769989,-0.29355 0.013592,-0.52821 0.048869,-0.0602 0.090677,-0.0821 z"
         style="font-style:normal;font-variant:normal;font-weight:bold;font-stretch:normal;font-size:3.17499995px;font-family:Ebrima;-inkscape-font-specification:'Ebrima Bold';stroke-width:0.26458332"
         id="path917"
         inkscape:connector-curvature="0" />
      <path
         d="m 8.7453931,262.69078 q -0.084408,0.0909 -0.1916032,0.0992 -0.1083312,0.007 -0.1867055,-0.0655 -0.080646,-0.0749 -0.07795,-0.18032 0.0027,-0.10541 0.087104,-0.19628 0.085463,-0.092 0.1893315,-0.10131 0.1049236,-0.0104 0.1855697,0.0645 0.081782,0.076 0.080222,0.18243 -5.053e-4,0.10533 -0.085968,0.19733 z m 1.5117249,1.07415 -0.3334103,0.35893 -1.1631208,-1.08042 0.3334107,-0.35893 z"
         style="font-style:normal;font-variant:normal;font-weight:bold;font-stretch:normal;font-size:3.17499995px;font-family:Ebrima;-inkscape-font-specification:'Ebrima Bold';stroke-width:0.26458332"
         id="path919"
         inkscape:connector-curvature="0" />
      <path
         d="m 11.655835,262.44453 -0.362017,0.32775 -0.162316,-0.17928 -0.0057,0.005 q 0.05386,0.32975 -0.171392,0.53369 -0.409137,0.37041 -0.857585,-0.12492 l -0.6430187,-0.71024 0.3620175,-0.32776 0.6138852,0.67807 q 0.225785,0.24939 0.423458,0.0704 0.09769,-0.0884 0.09491,-0.20931 -0.0038,-0.12202 -0.109946,-0.23924 l -0.609723,-0.67347 0.362017,-0.32775 z"
         style="font-style:normal;font-variant:normal;font-weight:bold;font-stretch:normal;font-size:3.17499995px;font-family:Ebrima;-inkscape-font-specification:'Ebrima Bold';stroke-width:0.26458332"
         id="path921"
         inkscape:connector-curvature="0" />
      <path
         d="m 14.060242,260.76148 -0.406409,0.27076 -0.501979,-0.75347 q -0.19168,-0.28771 -0.40327,-0.14674 -0.100635,0.067 -0.106264,0.19561 -0.0056,0.12856 0.08033,0.25757 l 0.492524,0.73928 -0.407699,0.27162 -0.507136,-0.76121 q -0.186523,-0.27997 -0.394243,-0.14158 -0.104505,0.0696 -0.112713,0.19431 -0.0069,0.12383 0.08763,0.26575 l 0.489086,0.73412 -0.407698,0.27162 -0.880183,-1.32115 0.407698,-0.27162 0.137529,0.20643 0.0052,-0.003 q -0.0073,-0.14791 0.06244,-0.28935 0.07013,-0.14359 0.205599,-0.23385 0.27997,-0.18652 0.54736,-0.009 -0.01322,-0.34699 0.279648,-0.54211 0.430922,-0.28709 0.785058,0.24447 z"
         style="font-style:normal;font-variant:normal;font-weight:bold;font-stretch:normal;font-size:3.17499995px;font-family:Ebrima;-inkscape-font-specification:'Ebrima Bold';stroke-width:0.26458332"
         id="path923"
         inkscape:connector-curvature="0" />
      <path
         d="m 15.379227,258.00348 q -0.101573,0.003 -0.18131,0.0376 -0.216428,0.0932 -0.115252,0.32814 l 0.06684,0.1552 0.333186,-0.14348 0.142873,0.33176 -0.333186,0.14349 0.485033,1.12628 -0.448519,0.19315 -0.485033,-1.12628 -0.244906,0.10547 -0.142873,-0.33176 0.244906,-0.10547 -0.07788,-0.18083 q -0.107309,-0.24918 -0.0106,-0.47144 0.09671,-0.22225 0.375789,-0.34244 0.136691,-0.0589 0.240083,-0.0696 z"
         style="font-style:normal;font-variant:normal;font-weight:bold;font-stretch:normal;font-size:3.17499995px;font-family:Ebrima;-inkscape-font-specification:'Ebrima Bold';stroke-width:0.26458332"
         id="path925"
         inkscape:connector-curvature="0" />
      <path
         d="m 17.764555,259.28925 -0.465154,0.1487 -0.07364,-0.23036 -0.0074,0.002 q -0.08733,0.32251 -0.376759,0.41503 -0.525698,0.16805 -0.729151,-0.4684 l -0.291726,-0.91259 0.465153,-0.14869 0.278509,0.87124 q 0.102435,0.32044 0.356424,0.23924 0.125517,-0.0401 0.172977,-0.15132 0.04699,-0.11267 -0.0012,-0.2633 l -0.276621,-0.86533 0.465153,-0.14869 z m -0.94674,-1.62766 q -0.09894,0.0316 -0.180845,-0.006 -0.08191,-0.0373 -0.109758,-0.12442 -0.02879,-0.0901 0.01676,-0.16649 0.04556,-0.0764 0.144497,-0.10804 0.09894,-0.0316 0.180845,0.006 0.08291,0.0353 0.111234,0.12394 0.02832,0.0886 -0.01676,0.16649 -0.04556,0.0764 -0.145973,0.10851 z m -0.676319,0.2162 q -0.100414,0.0321 -0.182321,-0.005 -0.08238,-0.0388 -0.109758,-0.12442 -0.02832,-0.0886 0.01871,-0.16548 0.04656,-0.0784 0.144025,-0.10952 0.100414,-0.0321 0.180844,0.006 0.08143,0.0358 0.109758,0.12442 0.02879,0.0901 -0.01676,0.16649 -0.04408,0.0759 -0.144497,0.10804 z"
         style="font-style:normal;font-variant:normal;font-weight:bold;font-stretch:normal;font-size:3.17499995px;font-family:Ebrima;-inkscape-font-specification:'Ebrima Bold';stroke-width:0.26458332"
         id="path927"
         inkscape:connector-curvature="0" />
      <path
         d="m 18.94268,257.86143 q -0.09646,-0.0285 -0.21168,-0.004 -0.156152,0.0334 -0.219449,0.1674 -0.06362,0.1325 -0.02149,0.32959 l 0.158491,0.74134 -0.479067,0.10242 -0.33189,-1.55242 0.479067,-0.10242 0.06158,0.28805 0.0061,-10e-4 q 0.04629,-0.33964 0.341914,-0.40285 0.0758,-0.0162 0.12214,-0.007 z"
         style="font-style:normal;font-variant:normal;font-weight:bold;font-stretch:normal;font-size:3.17499995px;font-family:Ebrima;-inkscape-font-specification:'Ebrima Bold';stroke-width:0.26458332"
         id="path929"
         inkscape:connector-curvature="0" />
      <path
         d="m 22.169207,258.71591 -0.631571,0.0346 -0.699912,-0.92892 q -0.0201,-0.0269 -0.06553,-0.11907 l -0.0077,4.3e-4 0.05956,1.08667 -0.499994,0.0274 -0.121672,-2.21979 0.499994,-0.0274 0.05753,1.04953 0.0077,-4.3e-4 q 0.0162,-0.0444 0.05513,-0.12723 l 0.562256,-0.95928 0.595968,-0.0327 -0.715948,1.10123 z"
         style="font-style:normal;font-variant:normal;font-weight:bold;font-stretch:normal;font-size:3.17499995px;font-family:Ebrima;-inkscape-font-specification:'Ebrima Bold';stroke-width:0.26458332"
         id="path931"
         inkscape:connector-curvature="0" />
      <path
         d="m 23.839602,258.83558 -0.487277,-0.0322 0.01597,-0.24132 -0.0077,-5.1e-4 q -0.199519,0.26801 -0.502713,0.24795 -0.5507,-0.0365 -0.506575,-0.70317 l 0.06327,-0.95599 0.487276,0.0323 -0.0604,0.91268 q -0.02222,0.33568 0.243852,0.35329 0.131488,0.009 0.21642,-0.0774 0.08504,-0.0876 0.09548,-0.24537 l 0.05999,-0.90649 0.487277,0.0323 z"
         style="font-style:normal;font-variant:normal;font-weight:bold;font-stretch:normal;font-size:3.17499995px;font-family:Ebrima;-inkscape-font-specification:'Ebrima Bold';stroke-width:0.26458332"
         id="path933"
         inkscape:connector-curvature="0" />
      <path
         d="m 24.733174,258.97701 -0.484188,-0.0745 0.357616,-2.32288 0.484188,0.0745 z"
         style="font-style:normal;font-variant:normal;font-weight:bold;font-stretch:normal;font-size:3.17499995px;font-family:Ebrima;-inkscape-font-specification:'Ebrima Bold';stroke-width:0.26458332"
         id="path935"
         inkscape:connector-curvature="0" />
      <path
         d="m 26.083614,259.23857 q -0.118386,0.0324 -0.331762,-0.015 -0.505445,-0.11243 -0.38864,-0.63754 l 0.157872,-0.70975 -0.251209,-0.0559 0.07843,-0.3526 0.251209,0.0559 0.07439,-0.33444 0.506987,-0.0302 -0.104686,0.47064 0.34806,0.0774 -0.07843,0.3526 -0.34806,-0.0774 -0.139359,0.62651 q -0.05386,0.24213 0.138332,0.28488 0.07567,0.0168 0.165633,-0.009 z"
         style="font-style:normal;font-variant:normal;font-weight:bold;font-stretch:normal;font-size:3.17499995px;font-family:Ebrima;-inkscape-font-specification:'Ebrima Bold';stroke-width:0.26458332"
         id="path937"
         inkscape:connector-curvature="0" />
      <path
         d="m 27.781193,259.78962 -0.464055,-0.15209 0.07532,-0.22982 -0.0074,-0.002 q -0.259755,0.21016 -0.5485,0.11552 -0.524455,-0.17188 -0.316357,-0.80683 l 0.298386,-0.91043 0.464055,0.15209 -0.284868,0.86918 q -0.104773,0.31968 0.148616,0.40273 0.125221,0.041 0.22884,-0.0213 0.104103,-0.0638 0.153351,-0.21404 l 0.282936,-0.86329 0.464054,0.15209 z"
         style="font-style:normal;font-variant:normal;font-weight:bold;font-stretch:normal;font-size:3.17499995px;font-family:Ebrima;-inkscape-font-specification:'Ebrima Bold';stroke-width:0.26458332"
         id="path939"
         inkscape:connector-curvature="0" />
      <path
         d="m 29.572546,259.32301 q -0.06145,-0.0796 -0.16925,-0.1272 -0.146096,-0.0645 -0.275919,0.007 -0.129197,0.0701 -0.210542,0.25448 l -0.305983,0.6936 -0.448216,-0.19773 0.64075,-1.45245 0.448215,0.19773 -0.118889,0.2695 0.0057,0.002 q 0.236532,-0.24809 0.513121,-0.12608 0.07092,0.0313 0.103127,0.0658 z"
         style="font-style:normal;font-variant:normal;font-weight:bold;font-stretch:normal;font-size:3.17499995px;font-family:Ebrima;-inkscape-font-specification:'Ebrima Bold';stroke-width:0.26458332"
         id="path941"
         inkscape:connector-curvature="0" />
      <path
         d="m 31.361518,261.69452 -0.411736,-0.26258 0.130043,-0.20391 -0.0065,-0.004 q -0.303814,0.13905 -0.560005,-0.0243 -0.465327,-0.29677 -0.106041,-0.86013 l 0.51517,-0.80778 0.411736,0.26258 -0.49183,0.77119 q -0.180893,0.28364 0.04393,0.42702 0.111103,0.0709 0.226948,0.0362 0.116679,-0.0359 0.201707,-0.16923 l 0.488495,-0.76596 0.411736,0.26259 z"
         style="font-style:normal;font-variant:normal;font-weight:bold;font-stretch:normal;font-size:3.17499995px;font-family:Ebrima;-inkscape-font-specification:'Ebrima Bold';stroke-width:0.26458332"
         id="path943"
         inkscape:connector-curvature="0" />
      <path
         d="m 32.884757,262.90903 -0.377977,-0.30921 0.558543,-0.68276 q 0.233626,-0.28559 0.02964,-0.45246 -0.09839,-0.0805 -0.223833,-0.0569 -0.125438,0.0236 -0.220655,0.13996 l -0.573267,0.70076 -0.379178,-0.3102 1.005181,-1.22872 0.379177,0.31019 -0.159023,0.19439 0.0048,0.004 q 0.319155,-0.11346 0.57834,0.0986 0.407975,0.33375 -0.0063,0.84012 z"
         style="font-style:normal;font-variant:normal;font-weight:bold;font-stretch:normal;font-size:3.17499995px;font-family:Ebrima;-inkscape-font-specification:'Ebrima Bold';stroke-width:0.26458332"
         id="path945"
         inkscape:connector-curvature="0" />
      <path
         d="m 34.248991,264.2934 -0.339688,-0.353 0.157508,-0.15157 -0.0043,-0.004 q -0.301531,0.0578 -0.526198,-0.17567 -0.206393,-0.21448 -0.181358,-0.4903 0.02615,-0.27689 0.297603,-0.5381 0.283738,-0.27304 0.593321,-0.29341 0.309583,-0.0204 0.53425,0.2131 0.212843,0.22118 0.138064,0.46096 l 0.0043,0.004 0.680301,-0.65465 0.339688,0.35299 z m 0.223067,-0.88163 0.08602,-0.0828 q 0.111708,-0.1075 0.123087,-0.24323 0.01138,-0.13574 -0.08859,-0.23963 -0.112871,-0.11729 -0.269011,-0.094 -0.155023,0.0222 -0.315883,0.17703 -0.150805,0.14512 -0.171079,0.28727 -0.02027,0.14214 0.0883,0.25497 0.103196,0.10724 0.253709,0.0915 0.151588,-0.0146 0.293457,-0.15115 z"
         style="font-style:normal;font-variant:normal;font-weight:bold;font-stretch:normal;font-size:3.17499995px;font-family:Ebrima;-inkscape-font-specification:'Ebrima Bold';stroke-width:0.26458332"
         id="path947"
         inkscape:connector-curvature="0" />
      <path
         d="m 36.457199,267.4656 -0.26235,-0.41922 1.127558,-0.70563 q 0.182669,-0.11432 0.413319,-0.23671 l -0.0066,-0.0105 q -0.19403,0.0757 -0.286701,0.0971 l -1.557647,0.3603 -0.217117,-0.34694 0.986908,-1.24308 q 0.03974,-0.0505 0.225826,-0.22362 l -0.0074,-0.0118 q -0.267913,0.19144 -0.47818,0.32302 l -1.042137,0.65218 -0.239322,-0.38242 1.884519,-1.17935 0.389002,0.62161 -0.876077,1.0841 q -0.10526,0.12988 -0.227461,0.23562 l 0.0049,0.008 q 0.178592,-0.0624 0.318911,-0.0953 l 1.355384,-0.31236 0.379133,0.60584 z"
         style="font-style:normal;font-variant:normal;font-weight:bold;font-stretch:normal;font-size:3.17499995px;font-family:Ebrima;-inkscape-font-specification:'Ebrima Bold';stroke-width:0.26458332"
         id="path949"
         inkscape:connector-curvature="0" />
      <path
         d="m 37.803646,268.93803 -0.415148,-0.94875 q -0.306777,0.16132 -0.142085,0.53769 0.10503,0.24003 0.298201,0.3721 l -0.323822,0.1417 q -0.196191,-0.15445 -0.337266,-0.47685 -0.154127,-0.35223 -0.04469,-0.63195 0.110855,-0.28034 0.460242,-0.43322 0.362169,-0.15848 0.665769,-0.0409 0.303599,0.1176 0.437838,0.42438 0.139211,0.31814 0.02613,0.57407 -0.112454,0.25735 -0.436276,0.39905 z m 0.09344,-0.53671 q 0.31246,-0.13673 0.201837,-0.38953 -0.04723,-0.10795 -0.171512,-0.14833 -0.123658,-0.039 -0.264622,0.002 z"
         style="font-style:normal;font-variant:normal;font-weight:bold;font-stretch:normal;font-size:3.17499995px;font-family:Ebrima;-inkscape-font-specification:'Ebrima Bold';stroke-width:0.26458332"
         id="path951"
         inkscape:connector-curvature="0" />
      <path
         d="m 37.763062,270.95972 -0.143993,-0.46825 0.208936,-0.0643 -0.0018,-0.006 q -0.295193,-0.0844 -0.390429,-0.39409 -0.08749,-0.28451 0.05924,-0.5194 0.148213,-0.23534 0.508294,-0.34607 0.37638,-0.11574 0.66188,0.006 0.285499,0.12144 0.380734,0.43114 0.09022,0.2934 -0.08465,0.47369 l 0.0018,0.006 0.902424,-0.2775 0.143993,0.46825 z m 0.596684,-0.68629 0.1141,-0.0351 q 0.148181,-0.0456 0.219552,-0.16159 0.07137,-0.11602 0.02899,-0.25383 -0.04785,-0.15559 -0.197721,-0.20519 -0.148393,-0.0501 -0.361774,0.0155 -0.200045,0.0615 -0.282244,0.17924 -0.0822,0.11773 -0.03618,0.26739 0.04375,0.14226 0.185185,0.19608 0.141895,0.0553 0.330085,-0.003 z"
         style="font-style:normal;font-variant:normal;font-weight:bold;font-stretch:normal;font-size:3.17499995px;font-family:Ebrima;-inkscape-font-specification:'Ebrima Bold';stroke-width:0.26458332"
         id="path953"
         inkscape:connector-curvature="0" />
      <path
         d="m 39.693942,271.22581 q -0.02578,-0.12132 0.02907,-0.2138 0.05636,-0.0928 0.160993,-0.11503 0.107667,-0.0229 0.192339,0.04 0.08467,0.0628 0.110446,0.18416 0.0261,0.12283 -0.02603,0.21315 -0.05181,0.0918 -0.159476,0.11471 -0.109184,0.0232 -0.195372,-0.0393 -0.08587,-0.061 -0.111963,-0.18383 z m -1.748242,0.61868 -0.101811,-0.4792 1.552839,-0.32992 0.101811,0.4792 z"
         style="font-style:normal;font-variant:normal;font-weight:bold;font-stretch:normal;font-size:3.17499995px;font-family:Ebrima;-inkscape-font-specification:'Ebrima Bold';stroke-width:0.26458332"
         id="path955"
         inkscape:connector-curvature="0" />
      <path
         d="m 38.863349,273.58253 -0.132633,-1.02707 q -0.339692,0.0689 -0.287075,0.47632 0.03355,0.25984 0.181972,0.44076 l -0.350556,0.0453 q -0.145046,-0.20324 -0.190118,-0.55225 -0.04924,-0.38131 0.134198,-0.61915 0.184977,-0.23804 0.563209,-0.28689 0.392069,-0.0506 0.650546,0.14734 0.258477,0.19797 0.301364,0.53008 0.04448,0.3444 -0.135792,0.55839 -0.180068,0.21552 -0.530624,0.26079 z m 0.240104,-0.48902 q 0.338256,-0.0437 0.302913,-0.31736 -0.01509,-0.11685 -0.123073,-0.19044 -0.107784,-0.0721 -0.254694,-0.0718 z"
         style="font-style:normal;font-variant:normal;font-weight:bold;font-stretch:normal;font-size:3.17499995px;font-family:Ebrima;-inkscape-font-specification:'Ebrima Bold';stroke-width:0.26458332"
         id="path957"
         inkscape:connector-curvature="0" />
      <path
         d="m 38.261023,275.49136 -0.0085,-0.48826 0.881984,-0.0153 q 0.368914,-0.006 0.364341,-0.26991 -0.0022,-0.12711 -0.101286,-0.20757 -0.09908,-0.0805 -0.249435,-0.0779 l -0.905235,0.0157 -0.0085,-0.48981 1.587261,-0.0276 0.0085,0.48982 -0.251109,0.004 1.07e-4,0.006 q 0.292901,0.17012 0.298712,0.50493 0.0091,0.52703 -0.644979,0.53838 z"
         style="font-style:normal;font-variant:normal;font-weight:bold;font-stretch:normal;font-size:3.17499995px;font-family:Ebrima;-inkscape-font-specification:'Ebrima Bold';stroke-width:0.26458332"
         id="path959"
         inkscape:connector-curvature="0" />
    </g>
  </g>
</svg>
